<svg width="969" height="594" viewBox="0 0 969 594" fill="none" xmlns="http://www.w3.org/2000/svg">
<path fill-rule="evenodd" clip-rule="evenodd" d="M1003.5 593.722L1001 593.722V589.787C1001.84 591.079 1002.67 592.39 1003.5 593.722ZM176.657 -247.278H1001V589.787C958.17 523.699 905.171 509.221 852.824 494.921C818.596 485.571 784.647 476.297 754 452.722C735.247 438.297 736.749 413.857 738.327 388.18C740.578 351.558 742.983 312.419 687 296.222C638.802 282.278 590.98 309.726 540.074 338.945C490.393 367.46 437.775 397.661 379 392.722C306.666 386.644 320.122 319.231 334.009 249.664C342.967 204.783 352.105 159.005 338.5 128.222C308.627 60.6297 260.906 80.6598 214.023 100.339C183.221 113.267 152.781 126.044 128 113.722C88.3296 93.9966 129.896 22.2583 172.583 -51.4133C209.965 -115.93 248.207 -181.929 233.5 -215.778C224.766 -235.879 203.267 -244.834 176.657 -247.278ZM176.657 -247.278C165.573 -248.296 153.602 -248.184 141.298 -247.278H176.657ZM0 -215.778C0.509267 -215.778 3.56697 -216.734 8.62867 -218.318C30.325 -225.106 88.8407 -243.414 141.298 -247.278H0V-215.778Z" fill="#2E497E"/>
<path fill-rule="evenodd" clip-rule="evenodd" d="M1003.5 570L1001 570V566.065C1001.84 567.357 1002.67 568.668 1003.5 570ZM176.657 -271H1001V566.065C958.17 499.977 905.171 485.499 852.824 471.199C818.596 461.849 784.647 452.575 754 429C735.247 414.574 736.749 390.135 738.327 364.458C740.578 327.836 742.983 288.696 687 272.5C638.802 258.556 590.98 286.004 540.074 315.223C490.393 343.738 437.775 373.939 379 369C306.666 362.922 320.122 295.508 334.009 225.942C342.967 181.06 352.105 135.283 338.5 104.5C308.627 36.9075 260.906 56.9375 214.023 76.6163C183.221 89.545 152.781 102.322 128 90C88.3296 70.2744 129.896 -1.4639 172.583 -75.1355C209.965 -139.652 248.207 -205.652 233.5 -239.5C224.766 -259.601 203.267 -268.556 176.657 -271ZM176.657 -271C165.573 -272.018 153.602 -271.906 141.298 -271H176.657ZM0 -239.5C0.509267 -239.5 3.56697 -240.457 8.62867 -242.04C30.3251 -248.828 88.8409 -267.136 141.298 -271H0V-239.5Z" fill="url(#paint0_linear_206_2)"/>
<defs>
<linearGradient id="paint0_linear_206_2" x1="1031" y1="737.5" x2="294" y2="41.5" gradientUnits="userSpaceOnUse">
<stop offset="0.016798" stop-color="#E83F44"/>
<stop offset="0.437271" stop-color="#B015AF"/>
<stop offset="1" stop-color="#008DD2"/>
</linearGradient>
</defs>
</svg>
