<svg width="1486" height="1485" viewBox="0 0 1486 1485" fill="none" xmlns="http://www.w3.org/2000/svg">
<path d="M743.474 6.00004L734.694 6.50114L725.943 8.00358L717.247 10.5048L708.636 14.0009L700.136 18.486L691.775 23.9527L683.58 30.3918L675.578 37.793L667.796 46.1441L660.259 55.4312L652.992 65.6392L646.02 76.751L639.368 88.7488L633.058 101.613L627.114 115.322L621.557 129.853L616.407 145.183L611.686 161.287L607.412 178.138L603.603 195.71L600.276 213.972L597.447 232.896L595.132 252.451L593.343 272.605L592.093 293.325L591.394 314.578L591.256 336.329L591.688 358.544L592.696 381.188L594.287 404.222L596.467 427.61L599.238 451.316L602.603 475.301L606.563 499.528L611.116 523.957L616.262 548.55L621.997 573.268L628.317 598.073L635.214 622.926L642.683 647.788L650.713 672.619L659.296 697.383L668.419 722.04L678.071 746.553L688.236 770.884L698.9 794.997L710.047 818.854L721.658 842.421L733.715 865.662L746.198 888.542L759.086 911.028L772.356 933.087L785.986 954.688L799.952 975.798L814.228 996.389L828.788 1016.43L843.606 1035.9L858.654 1054.76L873.904 1072.99L889.327 1090.57L904.893 1107.48L920.572 1123.69L936.333 1139.18L952.146 1153.93L967.979 1167.93L983.8 1181.16L999.576 1193.6L1015.28 1205.25L1030.87 1216.08L1046.32 1226.1L1061.6 1235.28L1076.67 1243.64L1091.5 1251.15L1106.06 1257.81L1120.32 1263.63L1134.24 1268.6L1147.8 1272.72L1160.96 1276L1173.7 1278.43L1185.98 1280.03L1197.78 1280.79L1209.06 1280.74L1219.8 1279.87L1229.98 1278.2L1239.56 1275.74L1248.52 1272.51L1256.84 1268.51L1264.49 1263.77L1271.46 1258.31L1277.72 1252.13L1283.25 1245.27L1288.03 1237.74L1292.05 1229.57L1295.28 1220.78L1297.73 1211.39L1299.36 1201.43L1300.18 1190.92L1300.16 1179.9L1299.31 1168.38L1297.6 1156.4L1295.05 1143.99L1291.64 1131.17L1287.36 1117.98L1282.22 1104.44L1276.23 1090.6L1269.37 1076.47L1261.65 1062.1L1253.08 1047.5L1243.66 1032.72L1233.4 1017.79L1222.31 1002.74L1210.41 987.594L1197.69 972.395L1184.19 957.17L1169.9 941.951L1154.85 926.77L1139.07 911.658L1122.55 896.644L1105.34 881.76L1087.44 867.034L1068.89 852.495L1049.71 838.172L1029.92 824.092L1009.55 810.282L988.633 796.768L967.195 783.574L945.266 770.726L922.879 758.247L900.066 746.158L876.86 734.481L853.295 723.236L829.406 712.442L805.229 702.117L780.801 692.277L756.157 682.938L731.335 674.115L706.373 665.82L681.309 658.064L656.182 650.859L631.03 644.213L605.893 638.134L580.808 632.629L555.816 627.701L530.955 623.356L506.265 619.595L481.783 616.418L457.549 613.827L433.6 611.818L409.975 610.388L386.711 609.534L363.845 609.249L341.413 609.525L319.451 610.356L297.994 611.73L277.076 613.637L256.731 616.064L236.99 618.999L217.886 622.427L199.449 626.331L181.709 630.696L164.694 635.503L148.431 640.734L132.947 646.369L118.266 652.387L104.412 658.766L91.4059 665.485L79.2699 672.52L68.0228 679.847L57.6825 687.442L48.2655 695.279L39.7867 703.333L32.2594 711.578L25.6954 719.986L20.1049 728.531L15.4966 737.185L11.8774 745.921L9.25271 754.711L7.62621 763.527L6.99997 772.34L7.37444 781.124L8.74838 789.848L11.1189 798.486L14.4815 807.01L18.8301 815.393L24.1568 823.606L30.4523 831.623L37.7057 839.418L45.9043 846.964L55.0341 854.236L65.0796 861.209L76.0236 867.859L87.8476 874.161L100.532 880.094L114.054 885.635L128.393 890.762L143.523 895.456L159.42 899.697L176.058 903.467L193.407 906.748L211.441 909.523L230.128 911.779L249.438 913.5L269.34 914.673L289.8 915.288L310.784 915.332L332.26 914.799L354.191 913.678L376.541 911.965L399.276 909.653L422.357 906.738L445.747 903.219L469.409 899.093L493.305 894.361L517.397 889.025L541.646 883.087L566.014 876.552L590.462 869.425L614.951 861.714L639.444 853.426L663.901 844.572L688.286 835.163L712.559 825.211L736.684 814.731L760.624 803.735L784.342 792.242L807.802 780.269L830.969 767.834L853.808 754.957L876.285 741.659L898.368 727.962L920.025 713.889L941.223 699.465L961.932 684.713L982.123 669.661L1001.77 654.334L1020.84 638.762L1039.31 622.971L1057.16 606.991L1074.36 590.852L1090.89 574.584L1106.73 558.218L1121.86 541.786L1136.26 525.318L1149.92 508.848L1162.81 492.407L1174.93 476.029L1186.27 459.745L1196.8 443.59L1206.53 427.595L1215.44 411.794L1223.53 396.22L1230.79 380.906L1237.22 365.883L1242.82 351.184L1247.59 336.84L1251.52 322.884L1254.63 309.346L1256.92 296.256L1258.38 283.645L1259.03 271.541L1258.89 259.972L1257.94 248.967L1256.22 238.551L1253.73 228.752L1250.49 219.594L1246.5 211.1L1241.8 203.294L1236.39 196.198L1230.29 189.831L1223.53 184.214L1216.13 179.365L1208.11 175.3L1199.49 172.036L1190.29 169.586L1180.55 167.964L1170.29 167.18L1159.53 167.246L1148.31 168.169L1136.64 169.957L1124.57 172.614L1112.12 176.147L1099.31 180.556L1086.19 185.843L1072.78 192.008L1059.11 199.047L1045.21 206.958L1031.12 215.736L1016.86 225.373L1002.47 235.861L987.984 247.19L973.428 259.349L958.834 272.324L944.235 286.102L929.661 300.666L915.143 316L900.711 332.083L886.395 348.897L872.224 366.418L858.228 384.626L844.433 403.494L830.868 422.998L817.559 443.111L804.533 463.806L791.813 485.053L779.426 506.821L767.393 529.082L755.737 551.8L744.479 574.945L733.64 598.483L723.239 622.378L713.294 646.595L703.821 671.098L694.837 695.85L686.355 720.815L678.389 745.954L670.951 771.23L664.052 796.603L657.7 822.036L651.904 847.488L646.67 872.921L642.003 898.296L637.909 923.572L634.388 948.712L631.443 973.676L629.072 998.424L627.276 1022.92L626.05 1047.12L625.391 1070.99L625.293 1094.5L625.75 1117.6L626.752 1140.26L628.291 1162.44L630.357 1184.12L632.936 1205.24L636.017 1225.79L639.585 1245.73L643.624 1265.02L648.119 1283.64L653.051 1301.56L658.403 1318.75L664.154 1335.18L670.284 1350.83L676.772 1365.67L683.595 1379.67L690.732 1392.83L698.157 1405.11L705.847 1416.5L713.777 1426.97L721.921 1436.52L730.253 1445.13L738.746 1452.79L747.374 1459.48L756.109 1465.2L764.923 1469.93L773.789 1473.68L782.678 1476.42L791.564 1478.17L800.417 1478.93L809.209 1478.68L817.912 1477.43L826.499 1475.19L834.942 1471.95L843.213 1467.74L851.285 1462.54L859.132 1456.39L866.728 1449.28L874.046 1441.22L881.061 1432.24L887.75 1422.35L894.088 1411.57L900.051 1399.91L905.618 1387.4L910.767 1374.05L915.477 1359.89L919.729 1344.95L923.504 1329.25L926.783 1312.82L929.552 1295.68L931.793 1277.86L933.492 1259.4L934.636 1240.32L935.214 1220.66L935.213 1200.45L934.625 1179.72L933.441 1158.51L931.655 1136.85L929.26 1114.77L926.252 1092.33L922.628 1069.54L918.387 1046.45L913.528 1023.1L908.052 999.522L901.963 975.755L895.263 951.838L887.959 927.809L880.056 903.707L871.564 879.569L862.491 855.435L852.848 831.341L842.648 807.326L831.903 783.427L820.628 759.681L808.84 736.124L796.556 712.793L783.793 689.724L770.572 666.95L756.914 644.506L742.84 622.426L728.373 600.741L713.537 579.485L698.357 558.686L682.86 538.376L667.071 518.583L651.018 499.334L634.73 480.656L618.236 462.574L601.565 445.113L584.749 428.295L567.818 412.143L550.803 396.675L533.737 381.911L516.651 367.87L499.58 354.565L482.554 342.014L465.609 330.227L448.776 319.219L432.09 308.998L415.583 299.573L399.289 290.952L383.24 283.14L367.471 276.142L352.014 269.961L336.9 264.596L322.162 260.049L307.832 256.317L293.94 253.397L280.517 251.284L267.593 249.971L255.197 249.452L243.358 249.717L232.102 250.754L221.456 252.553L211.447 255.101L202.099 258.381L193.435 262.379L185.479 267.078L178.252 272.458L171.774 278.502L166.064 285.187L161.141 292.493L157.021 300.396L153.719 308.874L151.249 317.901L149.623 327.452L148.853 337.501L148.949 348.021L149.917 358.984L151.765 370.362L154.499 382.126L158.12 394.246L162.633 406.693L168.036 419.436L174.329 432.445L181.509 445.689L189.573 459.136L198.513 472.756L208.322 486.517L218.993 500.388L230.513 514.337L242.872 528.334L256.055 542.347L270.047 556.346L284.833 570.3L300.393 584.179L316.709 597.954L333.76 611.595L351.523 625.074L369.975 638.362L389.092 651.432L408.847 664.258L429.212 676.813L450.161 689.073L471.662 701.013L493.686 712.61L516.201 723.841L539.175 734.686L562.574 745.123L586.363 755.133L610.509 764.699L634.974 773.803L659.723 782.43L684.718 790.564L709.922 798.192L735.297 805.303L760.805 811.884L786.406 817.928L812.062 823.425L837.734 828.368L863.381 832.753L888.965 836.574L914.447 839.829L939.786 842.517L964.944 844.636L989.881 846.189L1014.56 847.178L1038.94 847.607L1062.99 847.481L1086.66 846.806L1109.92 845.591L1132.74 843.844L1155.08 841.576L1176.9 838.798L1198.17 835.524L1218.85 831.767L1238.93 827.541L1258.35 822.865L1277.1 817.754L1295.14 812.227L1312.45 806.303L1328.99 800.003L1344.75 793.347L1359.7 786.359L1373.82 779.059L1387.08 771.473L1399.46 763.624L1410.96 755.538L1421.54 747.239L1431.19 738.753L1439.91 730.108L1447.67 721.331L1454.47 712.448L1460.29 703.487L1465.13 694.476L1468.98 685.443L1471.84 676.417L1473.71 667.425L1474.58 658.496L1474.45 649.658L1473.33 640.938L1471.22 632.366L1468.13 623.968L1464.05 615.771L1459.01 607.803L1453 600.091L1446.05 592.659L1438.17 585.534L1429.36 578.74L1419.65 572.302L1409.06 566.243L1397.59 560.586L1385.29 555.353L1372.15 550.564L1358.22 546.24L1343.51 542.4L1328.05 539.063L1311.86 536.244L1294.98 533.961L1277.43 532.229L1259.25 531.06L1240.46 530.467L1221.09 530.463L1201.19 531.056L1180.77 532.256L1159.89 534.069L1138.56 536.503L1116.84 539.562L1094.74 543.25L1072.32 547.567L1049.6 552.516L1026.63 558.096L1003.44 564.303L980.071 571.135L956.558 578.588L932.942 586.653L909.26 595.325L885.549 604.593L861.847 614.448L838.193 624.877L814.623 635.868L791.174 647.406L767.882 659.475L744.785 672.059L721.917 685.138L699.313 698.695L677.007 712.707L655.033 727.154L633.424 742.013L612.212 757.259L591.427 772.869L571.1 788.815L551.26 805.072L531.934 821.612L513.15 838.406L494.934 855.424L477.31 872.639L460.301 890.017L443.93 907.53L428.218 925.144L413.183 942.827L398.845 960.548L385.22 978.272L372.323 995.967L360.168 1013.6L348.768 1031.14L338.134 1048.54L328.275 1065.78L319.199 1082.83L310.913 1099.64L303.422 1116.19L296.729 1132.44L290.836 1148.35L285.745 1163.91L281.453 1179.07L277.958 1193.8L275.256 1208.07L273.343 1221.85L272.21 1235.12L271.85 1247.83L272.253 1259.97L273.408 1271.5L275.303 1282.4L277.923 1292.65L281.254 1302.21L285.279 1311.07L289.981 1319.2L295.341 1326.58L301.34 1333.19L307.956 1339.02L315.169 1344.04L322.954 1348.24L331.288 1351.6L340.146 1354.11L349.503 1355.76L359.333 1356.54L369.608 1356.43L380.301 1355.43L391.383 1353.54L402.826 1350.75L414.6 1347.06L426.676 1342.46L439.024 1336.95L451.612 1330.54L464.411 1323.24L477.39 1315.03L490.518 1305.94L503.764 1295.97L517.096 1285.13L530.485 1273.42L543.9 1260.87L557.309 1247.49L570.684 1233.29L583.993 1218.29L597.209 1202.5L610.3 1185.96L623.24 1168.67L636.001 1150.67L648.554 1131.98L660.873 1112.61L672.933 1092.61L684.708 1071.99L696.175 1050.78L707.309 1029.02L718.089 1006.74L728.492 983.967L738.499 960.734L748.09 937.077L757.246 913.03L765.952 888.628L774.19 863.908L781.945 838.906L789.205 813.661L795.956 788.209L802.189 762.589L807.892 736.841L813.058 711.003L817.678 685.114L821.749 659.213L825.264 633.342L828.221 607.538L830.618 581.842L832.455 556.293L833.731 530.93L834.451 505.793L834.617 480.921L834.234 456.351L833.308 432.121L831.847 408.27L829.86 384.834L827.357 361.848L824.348 339.35L820.847 317.372L816.868 295.95L812.424 275.116L807.533 254.902L802.21 235.34L796.475 216.458L790.346 198.287L783.843 180.854L776.987 164.185L769.801 148.305L762.305 133.239L754.525 119.009L746.484 105.637L738.207 93.141L729.72 81.5408L721.047 70.8523L712.217 61.0918L703.255 52.2724L694.189 44.4063L685.046 37.5046L675.855 31.5757L666.644 26.6275L657.44 22.6654L648.273 19.6939L639.17 17.7151L630.159 16.7304L621.27 16.7384L612.529 17.737L603.965 19.722L595.605 22.6879L587.476 26.6271L579.605 31.5309L572.018 37.3888L564.742 44.1886L557.8 51.9169L551.218 60.5581L545.02 70.0965L539.227 80.5135L533.864 91.7895L528.951 103.904L524.508 116.835L520.556 130.559L517.112 145.051L514.194 160.285L511.819 176.234L510.002 192.87L508.758 210.164L508.098 228.086L508.036 246.604L508.58 265.687L509.742 285.301L511.528 305.413L513.945 325.989L516.999 346.993L520.693 368.39L525.03 390.145L530.011 412.22L535.636 434.579L541.903 457.185L548.809 480L556.349 502.986L564.518 526.106L573.308 549.323L582.711 572.598L592.717 595.895L603.314 619.175L614.49 642.401L626.23 665.537L638.519 688.546L651.341 711.392L664.677 734.039L678.508 756.453L692.814 778.599L707.574 800.443L722.765 821.953L738.363 843.096L754.343 863.841L770.681 884.157L787.348 904.016L804.318 923.388L821.562 942.247L839.051 960.565L856.756 978.319L874.644 995.484L892.686 1012.04L910.849 1027.96L929.101 1043.23L947.409 1057.82L965.741 1071.73L984.061 1084.93L1002.34 1097.41L1020.54 1109.16L1038.62 1120.16L1056.56 1130.41L1074.32 1139.89L1091.86 1148.6L1109.16 1156.54L1126.17 1163.7L1142.87 1170.07L1159.21 1175.65L1175.18 1180.45L1190.73 1184.47L1205.83 1187.71L1220.46 1190.17L1234.58 1191.86L1248.16 1192.79L1261.17 1192.97L1273.59 1192.4L1285.38 1191.11L1296.52 1189.09L1306.99 1186.37L1316.76 1182.96L1325.81 1178.88L1334.11 1174.15L1341.64 1168.78L1348.39 1162.79L1354.33 1156.22L1359.45 1149.07L1363.73 1141.37L1367.16 1133.15L1369.72 1124.43L1371.41 1115.24L1372.21 1105.59L1372.11 1095.53L1371.11 1085.08L1369.2 1074.26L1366.38 1063.11L1362.64 1051.65L1357.98 1039.91L1352.41 1027.93L1345.92 1015.73L1338.52 1003.34L1330.22 990.801L1321.02 978.136L1310.93 965.376L1299.96 952.552L1288.13 939.695L1275.44 926.835L1261.91 914.002L1247.55 901.225L1232.39 888.534L1216.45 875.958L1199.74 863.524L1182.28 851.262L1164.11 839.197L1145.23 827.357L1125.69 815.768L1105.51 804.454L1084.71 793.44L1063.32 782.749L1041.38 772.404L1018.91 762.426L995.959 752.837L972.546 743.654L948.709 734.898L924.484 726.584L899.907 718.73L875.014 711.35L849.842 704.458L824.429 698.067L798.813 692.188L773.033 686.831L747.127 682.005L721.135 677.717L695.097 673.974L669.051 670.779L643.038 668.137L617.098 666.049L591.269 664.517L565.592 663.54L540.106 663.115L514.85 663.239L489.862 663.909L465.182 665.117L440.846 666.857L416.892 669.119L393.358 671.896L370.278 675.174L347.689 678.942L325.624 683.186L304.118 687.893L283.203 693.045L262.911 698.627L243.273 704.62L224.319 711.006L206.076 717.764L188.573 724.874L171.836 732.314L155.889 740.062L140.756 748.094L126.459 756.386L113.02 764.914L100.457 773.652L88.7881 782.574L78.0301 791.653L68.1978 800.864L59.3045 810.178L51.3621 819.567L44.3807 829.004L38.3688 838.461L33.3336 847.909L29.2803 857.32L26.2127 866.665L24.1327 875.917L23.0409 885.045L22.936 894.023L23.8152 902.822L25.6741 911.414L28.5064 919.772L32.3046 927.87L37.0594 935.679L42.7599 943.175L49.3937 950.332L56.9469 957.125L65.4041 963.53L74.7485 969.523L84.9617 975.081L96.0241 980.183L107.914 984.809L120.611 988.936L134.089 992.548L148.325 995.626L163.291 998.152L178.962 1000.11L195.309 1001.49L212.302 1002.27L229.911 1002.45L248.105 1002L266.852 1000.93L286.12 999.226L305.874 996.875L326.081 993.874L346.705 990.219L367.712 985.907L389.065 980.937L410.728 975.308L432.665 969.022L454.838 962.08L477.21 954.488L499.745 946.25L522.405 937.373L545.152 927.866L567.95 917.738L590.761 907L613.548 895.665L636.274 883.746L658.904 871.258L681.401 858.218L703.73 844.643L725.855 830.553L747.742 815.967L769.359 800.906L790.67 785.394L811.645 769.453L832.251 753.108L852.459 736.384L872.238 719.309L891.559 701.91L910.396 684.215L928.721 666.253L946.509 648.055L963.736 629.651L980.378 611.072L996.413 592.351L1011.82 573.52L1026.58 554.612L1040.68 535.66L1054.1 516.698L1066.82 497.761L1078.83 478.883L1090.12 460.097L1100.68 441.44L1110.49 422.945L1119.55 404.647L1127.86 386.58L1135.4 368.779L1142.18 351.278L1148.19 334.111L1153.43 317.312L1157.9 300.913L1161.61 284.946L1164.55 269.445L1166.75 254.44L1168.19 239.962L1168.89 226.041L1168.86 212.707L1168.1 199.987L1166.64 187.909L1164.49 176.499L1161.65 165.784L1158.15 155.786L1154 146.531L1149.22 138.039L1143.83 130.331L1137.86 123.428L1131.31 117.347L1124.22 112.105L1116.61 107.719L1108.5 104.202L1099.91 101.567L1090.88 99.8254L1081.43 98.9871L1071.59 99.0599L1061.38 100.051L1050.83 101.966L1039.97 104.807L1028.84 108.578L1017.45 113.278L1005.84 118.907L994.043 125.461L982.085 132.937L969.996 141.328L957.807 150.627L945.549 160.825L933.25 171.911L920.942 183.872L908.654 196.696L896.415 210.367L884.254 224.867L872.201 240.18L860.282 256.284L848.527 273.159L836.962 290.783L825.613 309.132L814.506 328.18L803.667 347.901L793.12 368.268L782.887 389.251L772.992 410.822L763.456 432.948L754.3 455.598L745.544 478.74L737.205 502.338L729.302 526.359L721.85 550.768L714.866 575.527L708.362 600.6L702.351 625.949L696.846 651.537L691.856 677.326L687.391 703.275L683.457 729.347L680.061 755.501L677.209 781.698L674.904 807.898L673.148 834.061L671.943 860.148L671.287 886.119L671.18 911.933L671.617 937.553L672.596 962.938L674.11 988.049L676.152 1012.85L678.713 1037.3L681.786 1061.37L685.357 1085.01L689.417 1108.19L693.95 1130.88L698.944 1153.04L704.382 1174.63L710.247 1195.64L716.523 1216.01L723.19 1235.73L730.229 1254.77L737.619 1273.09L745.339 1290.66L753.365 1307.48L761.675 1323.49L770.246 1338.7L779.051 1353.06L788.067 1366.57L797.266 1379.2L806.624 1390.94L816.111 1401.77L825.703 1411.67L835.369 1420.64L845.084 1428.66L854.817 1435.72L864.542 1441.81L874.229 1446.93L883.85 1451.07L893.375 1454.22L902.778 1456.4L912.028 1457.59L921.098 1457.8L929.96 1457.04L938.586 1455.3L946.948 1452.59L955.021 1448.92L962.777 1444.31L970.191 1438.75L977.238 1432.27L983.892 1424.88L990.13 1416.6L995.929 1407.43L1001.27 1397.41L1006.12 1386.55L1010.47 1374.87L1014.3 1362.39L1017.59 1349.15L1020.32 1335.15L1022.48 1320.44L1024.04 1305.03L1025 1288.96L1025.35 1272.25L1025.06 1254.93L1024.14 1237.05L1022.57 1218.62L1020.34 1199.68L1017.46 1180.27L1013.9 1160.41L1009.68 1140.15L1004.78 1119.52L999.212 1098.55L992.97 1077.29L986.059 1055.76L978.48 1034L970.24 1012.05L961.344 989.957L951.801 967.743L941.618 945.451L930.809 923.117L919.383 900.779L907.354 878.472L894.737 856.233L881.549 834.098L867.805 812.103L853.526 790.282L838.729 768.669L823.438 747.299L807.673 726.205L791.458 705.419L774.817 684.973L757.777 664.898L740.362 645.223L722.601 625.978L704.522 607.191L686.154 588.888L667.526 571.096L648.671 553.839L629.619 537.14L610.401 521.023L591.052 505.508L571.604 490.616L552.09 476.364L532.544 462.769L513.002 449.848L493.497 437.616L474.064 426.084L454.738 415.265L435.555 405.169L416.549 395.804L397.755 387.177L379.208 379.295L360.943 372.162L342.993 365.78L325.394 360.15L308.179 355.274L291.381 351.148L275.032 347.769L259.165 345.134L243.812 343.236L229.002 342.069L214.766 341.622L201.134 341.887L188.133 342.851L175.791 344.502L164.134 346.826L153.187 349.808L142.975 353.431L133.521 357.678L124.846 362.53L116.971 367.967L109.916 373.969L103.699 380.513L98.3356 387.577L93.8418 395.138L90.2313 403.17L87.5166 411.649L85.7086 420.548L84.8165 429.842L84.8484 439.503L85.8105 449.503L87.7075 459.813L90.5426 470.406L94.3174 481.252L99.0319 492.322L104.684 503.587L111.272 515.015L118.789 526.579L127.23 538.247L136.586 549.99L146.848 561.778L158.004 573.582L170.043 585.371L182.949 597.116L196.707 608.79L211.299 620.362L226.707 631.805L242.911 643.092L259.889 654.195L277.617 665.087L296.072 675.744L315.229 686.14L335.059 696.251L355.536 706.053L376.63 715.524L398.311 724.641L420.547 733.385L443.306 741.736L466.555 749.674L490.26 757.183L514.386 764.246L538.896 770.847L563.755 776.972L588.925 782.609L614.369 787.746L640.049 792.372L665.925 796.477L691.959 800.055L718.111 803.099L744.343 805.602L770.613 807.563L796.883 808.976L823.112 809.843L849.261 810.162L875.29 809.935L901.158 809.165L926.828 807.856L952.26 806.013L977.415 803.643L1002.25 800.755L1026.74 797.357L1050.84 793.46L1074.51 789.076L1097.72 784.218L1120.44 778.9L1142.62 773.137L1164.24 766.947L1185.26 760.346L1205.65 753.352L1225.39 745.987L1244.44 738.269L1262.77 730.221L1280.37 721.865L1297.19 713.223L1313.23 704.321L1328.45 695.183L1342.84 685.833L1356.37 676.298L1369.02 666.605L1380.79 656.78L1391.65 646.85L1401.58 636.844L1410.59 626.79L1418.65 616.716L1425.76 606.651L1431.9 596.623L1437.08 586.662L1441.29 576.796L1444.52 567.054L1446.78 557.464L1448.06 548.056L1448.37 538.858L1447.7 529.897L1446.08 521.201L1443.49 512.798L1439.96 504.715L1435.49 496.977L1430.09 489.61L1423.78 482.64L1416.56 476.09L1408.47 469.984L1399.5 464.345L1389.69 459.195L1379.06 454.555L1367.61 450.445L1355.39 446.883L1342.4 443.888L1328.68 441.477L1314.25 439.666L1299.15 438.468L1283.39 437.897L1267.01 437.966L1250.04 438.686L1232.5 440.065L1214.44 442.112L1195.89 444.834L1176.87 448.237L1157.42 452.325L1137.58 457.099L1117.37 462.563L1096.85 468.715L1076.04 475.554L1054.98 483.077L1033.7 491.28L1012.24 500.157L990.646 509.7L968.943 519.901L947.171 530.75L925.367 542.235L903.568 554.344L881.808 567.061L860.124 580.372L838.552 594.26L817.125 608.706L795.879 623.692L774.847 639.195L754.062 655.195L733.557 671.668L713.364 688.59L693.514 705.936L674.036 723.68L654.96 741.794L636.314 760.25L618.126 779.019L600.42 798.072L583.224 817.376L566.56 836.902L550.451 856.616L534.919 876.486L519.984 896.479L505.665 916.561L491.98 936.697L478.945 956.854L466.574 976.995L454.882 997.087L443.881 1017.09L433.582 1036.98L423.993 1056.71L415.122 1076.25L406.977 1095.56L399.561 1114.61L392.879 1133.36L386.932 1151.78L381.721 1169.83L377.245 1187.48L373.501 1204.7L370.486 1221.46L368.194 1237.71L366.62 1253.44L365.754 1268.6L365.588 1283.17L366.11 1297.12L367.309 1310.43L369.172 1323.06L371.684 1334.98L374.828 1346.18L378.59 1356.63L382.949 1366.3L387.888 1375.18L393.386 1383.24L399.422 1390.47L405.974 1396.84L413.018 1402.35L420.532 1406.96L428.49 1410.69L436.867 1413.5L445.637 1415.39L454.773 1416.35L464.249 1416.37L474.036 1415.45L484.106 1413.59L494.431 1410.77L504.981 1407L515.728 1402.29L526.642 1396.62L537.694 1390.01L548.854 1382.46L560.092 1373.98L571.379 1364.57L582.686 1354.25L593.982 1343.03L605.241 1330.92L616.431 1317.94L627.526 1304.1L638.497 1289.42L649.316 1273.91L659.957 1257.61L670.394 1240.53L680.6 1222.7L690.551 1204.14L700.222 1184.87L709.591 1164.93L718.633 1144.34L727.328 1123.13L735.655 1101.34L743.594 1078.99L751.126 1056.12L758.234 1032.75L764.9 1008.94L771.11 984.7L776.849 960.081L782.103 935.115L786.862 909.84L791.115 884.295L794.851 858.516L798.063 832.544L800.744 806.417L802.889 780.175L804.493 753.858L805.554 727.505L806.07 701.156L806.04 674.852L805.467 648.633L804.353 622.537L802.701 596.605L800.517 570.876L797.807 545.389L794.579 520.182L790.842 495.294L786.606 470.762L781.884 446.623L776.687 422.913L771.03 399.668L764.928 376.923L758.397 354.712L751.455 333.066L744.12 312.019L736.411 291.602L728.349 271.844L719.955 252.774L711.251 234.42L702.261 216.808L693.008 199.963L683.518 183.909L673.814 168.669L663.923 154.263L653.872 140.711L643.688 128.031L633.398 116.24L623.029 105.353L612.611 95.3837L602.172 86.3437L591.74 78.2439L581.345 71.0933L571.015 64.8988L560.78 59.6662L550.668 55.3996L540.709 52.101L530.931 49.7715L521.363 48.4106L512.033 48.0151L502.97 48.5813L494.2 50.1032L485.752 52.574L477.651 55.9847L469.924 60.3246L462.596 65.5819L455.693 71.7434L449.237 78.794L443.252 86.7174L437.761 95.4958L432.786 105.11L428.345 115.54L424.46 126.763L421.149 138.757L418.429 151.498L416.316 164.96L414.826 179.116L413.973 193.939L413.768 209.401L414.225 225.472L415.352 242.122L417.159 259.319L419.653 277.031L422.84 295.227L426.726 313.871L431.313 332.932L436.603 352.373L442.597 372.16L449.294 392.259L456.691 412.632L464.785 433.245L473.57 454.061L483.04 475.043L493.186 496.157L504 517.365L515.469 538.632L527.581 559.92L540.323 581.195L553.68 602.421L567.635 623.563L582.17 644.586L597.267 665.455L612.904 686.137L629.06 706.599L645.714 726.807L662.84 746.731L680.413 766.339L698.408 785.6L716.798 804.486L735.555 822.968L754.649 841.019L774.05 858.611L793.729 875.72L813.654 892.322L833.791 908.393L854.11 923.91L874.576 938.855L895.156 953.207L915.814 966.947L936.517 980.06L957.229 992.53L977.915 1004.34L998.539 1015.48L1019.07 1025.94L1039.46 1035.71L1059.68 1044.78L1079.7 1053.14L1099.48 1060.79L1118.98 1067.73L1138.17 1073.94L1157.02 1079.44L1175.48 1084.21L1193.53 1088.27L1211.13 1091.61L1228.25 1094.24L1244.86 1096.16L1260.92 1097.39L1276.41 1097.93L1291.28 1097.79L1305.53 1096.98L1319.11 1095.52L1332 1093.42L1344.17 1090.69L1355.6 1087.36L1366.27 1083.43L1376.15 1078.92L1385.21 1073.87L1393.45 1068.28L1400.84 1062.17L1407.37 1055.58L1413.01 1048.53L1417.75 1041.03L1421.59 1033.11L1424.5 1024.8L1426.48 1016.12L1427.52 1007.11L1427.61 997.786L1426.75 988.178L1424.94 978.314L1422.16 968.223L1418.43 957.935L1413.73 947.477L1408.09 936.879L1401.48 926.171L1393.94 915.382L1385.45 904.541L1376.04 893.677L1365.7 882.82L1354.46 871.998L1342.33 861.24L1329.31 850.575L1315.44 840.029L1300.73 829.631L1285.19 819.407L1268.85 809.384L1251.73 799.587L1233.85 790.042L1215.25 780.772L1195.94 771.802L1175.96 763.153L1155.32 754.848L1134.08 746.908L1112.24 739.353L1089.85 732.201L1066.94 725.47L1043.54 719.178L1019.7 713.339L995.429 707.969L970.782 703.08L945.792 698.685L920.496 694.794L894.932 691.418L869.138 688.564L843.155 686.24L817.02 684.452L790.774 683.203L764.456 682.497L738.107 682.335L711.765 682.719L685.472 683.646L659.266 685.115L633.189 687.123L607.278 689.663L581.573 692.731L556.113 696.318L530.937 700.415L506.083 705.012L481.586 710.099L457.485 715.662L433.816 721.687L410.613 728.16L387.911 735.064L365.744 742.383L344.144 750.097L323.143 758.189L302.772 766.636L283.059 775.418L264.034 784.513L245.724 793.898L228.154 803.549L211.35 813.441L195.334 823.549L180.128 833.847L165.754 844.308L152.23 854.906L139.573 865.613L127.801 876.4L116.928 887.24L106.966 898.103L97.9281 908.961L89.8234 919.785L82.6606 930.545L76.4463 941.211L71.1858 951.755L66.8826 962.148L63.5386 972.359L61.1542 982.361L59.7281 992.124L59.2572 1001.62L59.7372 1010.82L61.162 1019.7L63.5237 1028.23L66.8133 1036.38L71.0199 1044.13L76.1313 1051.46L82.1338 1058.33L89.012 1064.72L96.7494 1070.62L105.328 1075.99L114.728 1080.83L124.93 1085.1L135.91 1088.79L147.647 1091.88L160.115 1094.35L173.29 1096.2L187.144 1097.39L201.65 1097.93L216.779 1097.79L232.502 1096.97L248.789 1095.46L265.608 1093.25L282.928 1090.33L300.716 1086.7L318.938 1082.35L337.561 1077.29L356.551 1071.5L375.873 1064.99L395.493 1057.76L415.373 1049.82L435.48 1041.17L455.778 1031.82L476.23 1021.77L496.8 1011.03L517.454 999.61L538.155 987.529L558.867 974.795L579.557 961.425L600.187 947.433L620.724 932.838L641.134 917.657L661.384 901.912L681.438 885.622L701.267 868.811L720.836 851.502L740.116 833.72L759.076 815.49L777.687 796.84L795.919 777.798L813.746 758.392L831.14 738.651L848.077 718.608L864.53 698.292L880.478 677.737L895.898 656.975L910.768 636.039L925.069 614.964L938.782 593.783L951.89 572.533L964.378 551.248L976.23 529.964L987.433 508.717L997.976 487.543L1007.85 466.478L1017.04 445.559L1025.54 424.821L1033.35 404.302L1040.47 384.036L1046.88 364.06L1052.58 344.41L1057.59 325.12L1061.89 306.224L1065.49 287.759L1068.39 269.756L1070.61 252.25L1072.14 235.272L1072.99 218.854L1073.18 203.028L1072.71 187.822L1071.59 173.267L1069.85 159.391L1067.48 146.22L1064.52 133.78L1060.97 122.097L1056.86 111.194L1052.2 101.094L1047.01 91.8178L1041.32 83.3854L1035.14 75.8156L1028.5 69.1253L1021.42 63.3303L1013.92 58.4452L1006.04 54.4826L997.795 51.4536L989.213 49.3683L980.32 48.2348L971.145 48.0597L961.715 48.8482L952.058 50.6037L942.203 53.3278L932.178 57.0208L922.012 61.681L911.735 67.3062L901.375 73.891L890.961 81.4293L880.523 89.9131L870.089 99.3329L859.688 109.678L849.348 120.935L839.097 133.09L828.964 146.127L818.975 160.029L809.157 174.777L799.537 190.352L790.14 206.731L780.992 223.891L772.116 241.809L763.535 260.457L755.274 279.811L747.353 299.841L739.794 320.519L732.617 341.813L725.84 363.693L719.482 386.126L713.559 409.079L708.088 432.517L703.083 456.406L698.557 480.709L694.523 505.391L690.993 530.414L687.975 555.739L685.478 581.329L683.51 607.146L682.076 633.149L681.182 659.3L680.83 685.559L681.023 711.886L681.761 738.241L683.043 764.584L684.868 790.876L687.232 817.076L690.13 843.144L693.556 869.043L697.504 894.731L701.964 920.171L706.926 945.324L712.38 970.153L718.312 994.621L724.709 1018.69L731.558 1042.33L738.84 1065.49L746.54 1088.16L754.639 1110.29L763.119 1131.84L771.958 1152.8L781.136 1173.13L790.63 1192.8L800.418 1211.79L810.476 1230.05L820.779 1247.58L831.302 1264.35L842.019 1280.33L852.904 1295.5L863.928 1309.84L875.066 1323.33L886.287 1335.96L897.564 1347.71L908.869 1358.57L920.171 1368.52L931.442 1377.55L942.652 1385.65L953.771 1392.82L964.77 1399.04L975.62 1404.32L986.29 1408.65L996.752 1412.03L1006.98 1414.46L1016.93 1415.94L1026.6 1416.48L1035.94 1416.07L1044.93 1414.73L1053.54 1412.46L1061.75 1409.28L1069.53 1405.19L1076.86 1400.21L1083.7 1394.35L1090.05 1387.63L1095.87 1380.06L1101.14 1371.66L1105.85 1362.46L1109.96 1352.47L1113.48 1341.71L1116.37 1330.21L1118.61 1318L1120.21 1305.09L1121.13 1291.52L1121.38 1277.31L1120.93 1262.49L1119.77 1247.1L1117.91 1231.15L1115.32 1214.69L1112.01 1197.74L1107.97 1180.34L1103.19 1162.52L1097.68 1144.32L1091.44 1125.76L1084.45 1106.88L1076.74 1087.72L1068.3 1068.31L1059.14 1048.69L1049.26 1028.9L1038.67 1008.96L1027.39 988.911L1015.42 968.795L1002.77 948.643L989.471 928.49L975.526 908.372L960.953 888.322L945.773 868.375L930.003 848.565L913.666 828.924L896.782 809.484L879.376 790.279L861.471 771.338L843.092 752.693L824.268 734.372L805.025 716.406L785.392 698.821L765.398 681.644L745.074 664.902L724.452 648.619L703.562 632.819L682.439 617.524L661.115 602.756L639.625 588.535L618.003 574.88L596.284 561.808L574.503 549.337L552.698 537.481L530.902 526.253L509.154 515.667L487.49 505.733L465.945 496.46L444.558 487.857L423.363 479.93L402.399 472.685L381.7 466.126L361.303 460.254L341.245 455.071L321.559 450.577L302.281 446.769L283.446 443.644L265.087 441.197L247.237 439.423L229.928 438.314L213.194 437.86L197.063 438.053L181.567 438.881L166.734 440.33L152.592 442.388L139.168 445.039L126.489 448.267L114.578 452.054L103.46 456.383L93.1568 461.233L83.689 466.584L75.0765 472.416L67.3375 478.706L60.4891 485.43L54.5465 492.565L49.5238 500.085L45.4334 507.967L42.2863 516.184L40.0919 524.71L38.8579 533.517L38.5906 542.578L39.2947 551.865L40.9731 561.35L43.6272 571.005L47.2567 580.802L51.8599 590.71L57.4332 600.702L63.9715 610.748L71.4679 620.821L79.9142 630.89L89.3004 640.928L99.6149 650.906L110.844 660.796L122.975 670.571L135.989 680.203L149.87 689.666L164.599 698.932L180.154 707.978L196.514 716.776L213.656 725.304L231.555 733.538L250.184 741.454L269.517 749.031L289.525 756.247L310.179 763.083L331.448 769.519L353.3 775.537L375.703 781.121L398.622 786.253L422.025 790.92L445.875 795.107L470.136 798.802L494.771 801.993L519.744 804.672L545.017 806.828L570.55 808.454L596.306 809.544L622.244 810.093L648.327 810.098L674.513 809.556L700.763 808.466L727.038 806.83L753.298 804.648L779.502 801.924L805.611 798.662L831.585 794.868L857.386 790.55L882.974 785.715L908.311 780.373L933.359 774.536L958.08 768.215L982.438 761.424L1006.4 754.177L1029.92 746.492L1052.97 738.383L1075.52 729.87L1097.54 720.971L1118.98 711.707L1139.83 702.099L1160.05 692.168L1179.61 681.938L1198.48 671.433L1216.64 660.677L1234.07 649.696L1250.73 638.515L1266.61 627.161L1281.69 615.662L1295.95 604.045L1309.36 592.339L1321.91 580.572L1333.6 568.774L1344.39 556.973L1354.28 545.2L1363.27 533.483L1371.33 521.854L1378.47 510.342L1384.68 498.977L1389.95 487.788L1394.28 476.806L1397.67 466.059L1400.13 455.578L1401.64 445.39L1402.22 435.525L1401.88 426.011L1400.61 416.874L1398.43 408.143L1395.35 399.843L1391.38 392L1386.53 384.638L1380.82 377.783L1374.26 371.457L1366.87 365.683L1358.66 360.482L1349.67 355.874L1339.9 351.879L1329.39 348.515L1318.15 345.799L1306.21 343.747L1293.6 342.374L1280.34 341.694L1266.45 341.718L1251.98 342.457L1236.95 343.921L1221.38 346.118L1205.31 349.055L1188.78 352.738L1171.81 357.169L1154.43 362.353L1136.68 368.289L1118.6 374.977L1100.22 382.416L1081.57 390.602L1062.68 399.53L1043.6 409.194L1024.35 419.585L1004.98 430.696L985.513 442.515L965.988 455.029L946.44 468.226L926.904 482.091L907.412 496.606L888 511.754L868.701 527.517L849.547 543.873L830.571 560.802L811.805 578.28L793.279 596.283L775.025 614.787L757.072 633.764L739.449 653.187L722.183 673.029L705.302 693.259L688.832 713.847L672.798 734.762L657.223 755.973L642.131 777.445L627.542 799.147L613.479 821.044L599.959 843.1L587.001 865.282L574.622 887.553L562.838 909.877L551.661 932.218L541.106 954.539L531.183 976.803L521.902 998.974L513.272 1021.01L505.301 1042.89L497.993 1064.56L491.354 1085.98L485.386 1107.13L480.091 1127.97L475.469 1148.45L471.518 1168.55L468.236 1188.23L465.619 1207.45L463.661 1226.19L462.355 1244.4L461.694 1262.06L461.667 1279.13L462.263 1295.58L463.472 1311.39L465.279 1326.52L467.67 1340.94L470.629 1354.63L474.14 1367.57L478.185 1379.72L482.744 1391.07L487.798 1401.6L493.327 1411.27L499.308 1420.08L505.718 1428L512.535 1435.02L519.734 1441.13L527.29 1446.3L535.179 1450.53L543.373 1453.81L551.846 1456.12L560.571 1457.47L569.521 1457.84L578.668 1457.23L587.984 1455.63L597.44 1453.06L607.008 1449.5L616.659 1444.96L626.364 1439.44L636.096 1432.96L645.825 1425.51L655.524 1417.1L665.163 1407.75L674.716 1397.47L684.154 1386.27L693.45 1374.16L702.578 1361.17L711.511 1347.31L720.223 1332.6L728.691 1317.07L736.888 1300.72L744.793 1283.6L752.38 1265.71L759.63 1247.1L766.52 1227.78L773.03 1207.79L779.141 1187.16L784.834 1165.91L790.093 1144.08L794.901 1121.7L799.243 1098.8L803.105 1075.43L806.475 1051.61L809.34 1027.39L811.692 1002.79L813.519 977.856L814.816 952.628L815.575 927.143L815.791 901.439L815.46 875.556L814.581 849.534L813.151 823.411L811.171 797.228L808.643 771.024L805.569 744.84L801.954 718.714L797.802 692.688L793.122 666.799L787.921 641.088L782.209 615.592L775.996 590.351L769.295 565.401L762.118 540.781L754.48 516.526L746.398 492.672L737.887 469.256L728.965 446.311L719.652 423.87L709.967 401.966L699.932 380.631L689.569 359.895L678.9 339.788L667.948 320.338L656.74 301.572L645.3 283.516L633.654 266.194L621.829 249.63L609.852 233.845L597.751 218.861L585.555 204.697L573.293 191.369L560.993 178.895L548.685 167.288L536.399 156.563L524.166 146.73L512.014 137.8L499.975 129.781L488.078 122.68L476.354 116.502L464.833 111.251L453.545 106.93L442.519 103.538L431.784 101.074L421.37 99.5362L411.305 98.9197L401.618 99.2189L392.334 100.426L383.483 102.533L375.089 105.529L367.178 109.402L359.775 114.138L352.904 119.724L346.587 126.142L340.848 133.375L335.706 141.404L331.182 150.21L327.294 159.771L324.062 170.063L321.5 181.064L319.626 192.749L318.452 205.092L317.992 218.066L318.257 231.643L319.259 245.794L321.005 260.49L323.503 275.701L326.759 291.396L330.779 307.542L335.564 324.109L341.118 341.062L347.44 358.369L354.529 375.996L362.383 393.909L370.997 412.074L380.366 430.457L390.483 449.022L401.338 467.736L412.922 486.564L425.224 505.47L438.231 524.421L451.927 543.383L466.298 562.321L481.326 581.202L496.992 599.992L513.277 618.659L530.16 637.171L547.619 655.495L565.628 673.6L584.165 691.457L603.202 709.035L622.714 726.305L642.671 743.24L663.044 759.813L683.805 775.996L704.92 791.766L726.36 807.097L748.091 821.967L770.079 836.354L792.291 850.236L814.693 863.595L837.248 876.412L859.922 888.67L882.677 900.353L905.478 911.447L928.288 921.938L951.07 931.814L973.786 941.065L996.4 949.683L1018.87 957.659L1041.17 964.987L1063.25 971.662L1085.08 977.681L1106.62 983.041L1127.84 987.743L1148.69 991.787L1169.15 995.175L1189.18 997.91L1208.74 999.999L1227.8 1001.45L1246.32 1002.26L1264.28 1002.45L1281.64 1002.03L1298.38 1001L1314.45 999.383L1329.84 997.191L1344.51 994.438L1358.44 991.14L1371.61 987.316L1383.98 982.983L1395.53 978.161L1406.25 972.871L1416.11 967.133L1425.1 960.969L1433.19 954.403L1440.37 947.459L1446.62 940.161L1451.94 932.534L1456.31 924.604L1459.71 916.398L1462.15 907.941L1463.61 899.261L1464.09 890.386L1463.58 881.343L1462.09 872.161L1459.61 862.868L1456.14 853.493L1451.68 844.064L1446.25 834.608L1439.84 825.156L1432.47 815.735L1424.14 806.373L1414.86 797.098L1404.65 787.938L1393.52 778.919L1381.48 770.069L1368.56 761.414L1354.77 752.979L1340.13 744.79L1324.66 736.871L1308.39 729.245L1291.34 721.937L1273.53 714.968L1254.99 708.359L1235.76 702.131L1215.85 696.303L1195.3 690.894L1174.14 685.921L1152.4 681.401L1130.12 677.349L1107.33 673.779L1084.06 670.703L1060.35 668.135L1036.23 666.084L1011.75 664.56L986.942 663.571L961.841 663.123L936.486 663.221L910.918 663.871L885.174 665.074L859.295 666.833L833.32 669.146L807.289 672.014L781.242 675.432L755.218 679.399L729.256 683.907L703.397 688.95L677.679 694.521L652.141 700.61L626.821 707.206L601.758 714.298L576.989 721.873L552.551 729.916L528.48 738.412L504.812 747.344L481.581 756.695L458.822 766.445L436.567 776.575L414.848 787.064L393.697 797.889L373.144 809.028L353.217 820.457L333.944 832.151L315.353 844.086L297.468 856.234L280.313 868.57L263.911 881.065L248.284 893.691L233.451 906.421L219.431 919.224L206.241 932.072L193.898 944.935L182.413 957.782L171.802 970.583L162.074 983.308L153.238 995.927L145.304 1008.41L138.277 1020.72L132.162 1032.84L126.962 1044.72L122.679 1056.35L119.312 1067.69L116.86 1078.71L115.321 1089.38L114.688 1099.68L114.956 1109.57L116.117 1119.04L118.162 1128.04L121.08 1136.56L124.859 1144.57L129.484 1152.05L134.941 1158.97L141.214 1165.31L148.284 1171.04L156.132 1176.15L164.739 1180.62L174.082 1184.43L184.138 1187.56L194.885 1190L206.296 1191.72L218.347 1192.72L231.01 1192.99L244.256 1192.5L258.059 1191.27L272.387 1189.26L287.212 1186.48L302.501 1182.93L318.224 1178.59L334.348 1173.47L350.842 1167.57L367.671 1160.88L384.802 1153.4L402.203 1145.15L419.838 1136.12L437.674 1126.32L455.678 1115.77L473.813 1104.46L492.048 1092.41L510.346 1079.64L528.675 1066.15L547.001 1051.96L565.291 1037.09L583.51 1021.55L601.628 1005.37L619.611 988.565L637.428 971.157L655.049 953.17L672.442 934.628L689.578 915.557L706.428 895.983L722.964 875.935L739.159 855.44L754.987 834.529L770.422 813.233L785.44 791.583L800.018 769.612L814.133 747.353L827.765 724.84L840.894 702.107L853.5 679.191L865.568 656.126L877.079 632.948L888.021 609.696L898.379 586.405L908.14 563.113L917.295 539.857L925.833 516.675L933.747 493.604L941.029 470.683L947.676 447.949L953.681 425.439L959.044 403.191L963.762 381.242L967.837 359.629L971.27 338.387L974.064 317.553L976.224 297.162L977.754 277.249L978.664 257.847L978.96 238.991L978.653 220.712L977.753 203.042L976.274 186.012L974.228 169.653L971.63 153.991L968.496 139.056L964.843 124.874L960.688 111.471L956.052 98.8695L950.952 87.0938L945.412 76.1653L939.451 66.104L933.094 56.929L926.362 48.6576L919.281 41.3058L911.875 34.8881L904.17 29.4175L896.191 24.9054L887.964 21.3616L879.518 18.7947L870.878 17.2108L862.074 16.6151L853.131 17.0116L844.08 18.4013L834.947 20.7846L825.761 24.1599L816.551 28.5242L807.345 33.8726L798.17 40.1988L789.056 47.4948L780.029 55.7505L771.117 64.955L762.348 75.0951L753.747 86.1568L745.342 98.124L737.159 110.98L729.221 124.704L721.554 139.277L714.182 154.677L707.127 170.881L700.412 187.864L694.059 205.602L688.088 224.065L682.519 243.228L677.37 263.059L672.659 283.53L668.402 304.607L664.616 326.259L661.314 348.453L658.51 371.155L656.216 394.328L654.442 417.938L653.198 441.948L652.493 466.32L652.332 491.018L652.723 516.003L653.669 541.237L655.174 566.68L657.239 592.293L659.864 618.038L663.049 643.874L666.791 669.762L671.086 695.663L675.929 721.536L681.315 747.343L687.235 773.043L693.68 798.599L700.64 823.971L708.103 849.122L716.057 874.014L724.487 898.608L733.378 922.87L742.714 946.763L752.476 970.251L762.647 993.301L773.206 1015.88L784.133 1037.95L795.405 1059.49L807.001 1080.46L818.895 1100.83L831.063 1120.58L843.481 1139.67L856.122 1158.09L868.959 1175.8L881.964 1192.79L895.109 1209.03L908.367 1224.49L921.706 1239.17L935.099 1253.04L948.514 1266.09L961.922 1278.29L975.291 1289.65L988.592 1300.14L1001.79 1309.75L1014.86 1318.48L1027.77 1326.32L1040.49 1333.26L1052.99 1339.3L1065.23 1344.44L1077.18 1348.67L1088.83 1352L1100.12 1354.42L1111.05 1355.95L1121.58 1356.58L1131.67 1356.33L1141.32 1355.19L1150.47 1353.19L1159.12 1350.33L1167.23 1346.63L1174.79 1342.09L1181.76 1336.74L1188.13 1330.59L1193.87 1323.67L1198.96 1315.98L1203.39 1307.55L1207.14 1298.4L1210.18 1288.55L1212.51 1278.04L1214.1 1266.88L1214.95 1255.09L1215.04 1242.72L1214.37 1229.78L1212.92 1216.3L1210.69 1202.31L1207.66 1187.85L1203.84 1172.94L1199.23 1157.62L1193.81 1141.91L1187.59 1125.86L1180.57 1109.48L1172.76 1092.82L1164.15 1075.91L1154.75 1058.78L1144.58 1041.47L1133.63 1024.01L1121.92 1006.43L1109.46 988.765L1096.27 971.054L1082.35 953.327L1067.72 935.617L1052.41 917.958L1036.43 900.382L1019.79 882.92L1002.53 865.605L984.664 848.467L966.213 831.536L947.206 814.842L927.667 798.414L907.625 782.28L887.108 766.468L866.145 751.003L844.768 735.912L823.006 721.218L800.893 706.945L778.462 693.116L755.746 679.752L732.78 666.872L709.599 654.496L686.239 642.641L662.737 631.324L639.128 620.561L615.45 610.364L591.74 600.747L568.036 591.72L544.376 583.294L520.797 575.478L497.339 568.277L474.038 561.699L450.932 555.747L428.06 550.424L405.458 545.732L383.165 541.672L361.216 538.241L339.648 535.437L318.498 533.256L297.8 531.693L277.589 530.741L257.9 530.393L238.765 530.638L220.217 531.467L202.287 532.867L185.007 534.826L168.406 537.329L152.513 540.36L137.354 543.905L122.957 547.944L109.347 552.46L96.5479 557.432L84.5819 562.84L73.4706 568.664L63.234 574.88L53.8907 581.466L45.4578 588.398L37.9509 595.651L31.3841 603.2L25.7702 611.02L21.12 619.084L17.4432 627.366L14.7475 635.838L13.0393 644.474L12.3232 653.245L12.6022 662.124L13.8776 671.082L16.1492 680.091L19.415 689.124L23.6715 698.151L28.9134 707.145L35.134 716.077L42.3246 724.921L50.4754 733.648L59.5745 742.231L69.6087 750.643L80.5633 758.859L92.4221 766.852L105.167 774.596L118.779 782.069L133.237 789.244L148.52 796.1L164.603 802.613L181.463 808.763L199.072 814.527L217.404 819.887L236.431 824.823L256.122 829.318L276.448 833.354L297.376 836.917L318.874 839.991L340.909 842.562L363.445 844.619L386.449 846.151L409.884 847.147L433.713 847.599L457.9 847.5L482.407 846.843L507.196 845.625L532.228 843.841L557.464 841.491L582.866 838.572L608.394 835.086L634.009 831.035L659.671 826.422L685.341 821.252L710.979 815.532L736.547 809.268L762.005 802.469L787.316 795.147L812.439 787.311L837.339 778.974L861.976 770.152L886.316 760.858L910.32 751.109L933.955 740.922L957.184 730.316L979.975 719.312L1002.29 707.929L1024.11 696.189L1045.39 684.116L1066.1 671.733L1086.22 659.064L1105.72 646.136L1124.57 632.973L1142.75 619.605L1160.22 606.056L1176.98 592.358L1192.99 578.537L1208.23 564.623L1222.7 550.647L1236.36 536.639L1249.21 522.629L1261.23 508.648L1272.41 494.726L1282.73 480.896L1292.18 467.189L1300.77 453.636L1308.47 440.267L1315.29 427.116L1321.22 414.211L1326.26 401.585L1330.41 389.268L1333.67 377.289L1336.04 365.679L1337.53 354.466L1338.14 343.68L1337.89 333.349L1336.77 323.5L1334.79 314.159L1331.98 305.352L1328.35 297.106L1323.9 289.443L1318.65 282.387L1312.63 275.961L1305.84 270.185L1298.32 265.08L1290.07 260.665L1281.12 256.957L1271.5 253.974L1261.23 251.729L1250.33 250.239L1238.84 249.515L1226.77 249.568L1214.15 250.41L1201.02 252.047L1187.4 254.489L1173.33 257.739L1158.83 261.803L1143.94 266.683L1128.68 272.38L1113.09 278.894L1097.2 286.224L1081.05 294.366L1064.67 303.315L1048.08 313.065L1031.33 323.608L1014.45 334.935L997.466 347.035L980.418 359.895L963.337 373.501L946.255 387.839L929.206 402.892L912.222 418.641L895.333 435.067L878.573 452.15L861.97 469.866L845.557 488.194L829.361 507.107L813.412 526.581L797.739 546.589L782.367 567.101L767.325 588.09L752.636 609.525L738.326 631.374L724.419 653.606L710.936 676.189L697.9 699.087L685.33 722.267L673.245 745.695L661.664 769.333L650.604 793.145L640.079 817.096L630.104 841.148L620.692 865.263L611.854 889.403L603.601 913.531L595.941 937.608L588.883 961.596L582.431 985.457L576.591 1009.15L571.367 1032.64L566.759 1055.89L562.77 1078.86L559.397 1101.51L556.639 1123.81L554.492 1145.72L552.952 1167.2L552.012 1188.22L551.664 1208.74L551.901 1228.74L552.71 1248.16L554.082 1267L556.004 1285.2L558.461 1302.74L561.44 1319.6L564.923 1335.74L568.895 1351.13L573.336 1365.76L578.227 1379.59L583.549 1392.6L589.28 1404.76L595.398 1416.07L601.882 1426.49L608.706 1436.01L615.848 1444.62L623.282 1452.29L630.983 1459.01L638.925 1464.78L647.082 1469.57L655.426 1473.39L663.931 1476.22L672.569 1478.06L681.312 1478.9L690.132 1478.74L699.001 1477.58L707.892 1475.43L716.775 1472.27L725.624 1468.12L734.409 1462.99L743.103 1456.87L751.679 1449.79L760.11 1441.74L768.369 1432.75L776.429 1422.82L784.264 1411.97L791.849 1400.21L799.16 1387.57L806.172 1374.07L812.861 1359.72L819.206 1344.55L825.184 1328.58L830.775 1311.84L835.958 1294.35L840.714 1276.14L845.025 1257.24L848.874 1237.68L852.245 1217.49L855.124 1196.71L857.496 1175.35L859.348 1153.47L860.67 1131.09L861.451 1108.24L861.682 1084.97L861.357 1061.31L860.467 1037.3L859.01 1012.97L856.98 988.371L854.375 963.531L851.195 938.49L847.441 913.29L843.113 887.969L838.215 862.566L832.751 837.12L826.728 811.671L820.151 786.258L813.031 760.92L805.377 735.695L797.199 710.623L788.511 685.74L779.326 661.084L769.659 636.693L759.526 612.603L748.944 588.85L737.932 565.468L726.51 542.493L714.698 519.957L702.518 497.893L689.992 476.333L677.145 455.308L664 434.847L650.584 414.978L636.922 395.73L623.042 377.128L608.971 359.197L594.737 341.961L580.37 325.442L565.9 309.662L551.355 294.64L536.767 280.394L522.167 266.941L507.585 254.296L493.053 242.474L478.602 231.486L464.264 221.344L450.071 212.056L436.054 203.631L422.245 196.074L408.675 189.391L395.377 183.584L382.38 178.654L369.715 174.602L357.412 171.426L345.502 169.124L334.014 167.689L322.976 167.116L312.416 167.397L302.363 168.524L292.841 170.485L283.878 173.268L275.498 176.86L267.724 181.247L260.581 186.411L254.09 192.335L248.272 199.002L243.147 206.39L238.734 214.479L235.049 223.246L232.11 232.668L229.93 242.721L228.525 253.38L227.905 264.618L228.082 276.408L229.066 288.722L230.863 301.532L233.482 314.808L236.927 328.52L241.202 342.638L246.308 357.13L252.247 371.965L259.017 387.111L266.616 402.535L275.041 418.205L284.285 434.089L294.342 450.153L305.202 466.365L316.857 482.691L329.294 499.099L342.5 515.555L356.461 532.028L371.161 548.486L386.582 564.895L402.706 581.224L419.513 597.444L436.98 613.521L455.086 629.428L473.806 645.133L493.114 660.609L512.985 675.827L533.391 690.76L554.303 705.381L575.692 719.666L597.525 733.588L619.773 747.125L642.402 760.254L665.379 772.954L688.67 785.203L712.239 796.983L736.051 808.275L760.071 819.063L784.261 829.33L808.584 839.062L833.003 848.247L857.479 856.871L881.975 864.925L906.452 872.399L930.872 879.285L955.196 885.578L979.386 891.271L1003.4 896.362L1027.21 900.847L1050.76 904.725L1074.03 907.998L1096.98 910.667L1119.56 912.735L1141.74 914.206L1163.49 915.086L1184.77 915.383L1205.55 915.105L1225.78 914.262L1245.45 912.864L1264.51 910.924L1282.93 908.455L1300.69 905.471L1317.76 901.989L1334.09 898.026L1349.68 893.598L1364.49 888.725L1378.5 883.427L1391.69 877.724L1404.02 871.637L1415.49 865.191L1426.07 858.406L1435.74 851.309L1444.5 843.922L1452.31 836.271L1459.18 828.383L1465.08 820.282L1470.01 811.997L1473.96 803.554L1476.91 794.98L1478.88 786.303L1479.85 777.551L1479.81 768.752L1478.78 759.935L1476.75 751.126L1473.72 742.355L1469.69 733.649L1464.68 725.035L1458.7 716.543L1451.74 708.198L1443.82 700.028L1434.96 692.059L1425.16 684.318L1414.45 676.829L1402.84 669.618L1390.35 662.709L1376.99 656.125L1362.8 649.89L1347.79 644.026L1331.98 638.553L1315.41 633.493L1298.1 628.863L1280.07 624.684L1261.36 620.972L1241.99 617.743L1222 615.013L1201.42 612.796L1180.28 611.105L1158.61 609.951L1136.45 609.345L1113.84 609.297L1090.81 609.813L1067.39 610.901L1043.63 612.566L1019.56 614.812L995.22 617.642L970.649 621.056L945.884 625.056L920.965 629.638L895.931 634.802L870.82 640.542L845.672 646.852L820.525 653.727L795.419 661.157L770.392 669.134L745.483 677.646L720.729 686.681L696.169 696.225L671.838 706.265L647.774 716.783L624.013 727.763L600.59 739.186L577.54 751.034L554.897 763.284L532.692 775.917L510.96 788.908L489.73 802.235L469.032 815.873L448.897 829.796L429.351 843.978L410.422 858.393L392.135 873.011L374.514 887.805L357.582 902.746L341.362 917.804L325.873 932.948L311.135 948.148L297.165 963.373L283.98 978.591L271.593 993.771L260.018 1008.88L249.268 1023.89L239.351 1038.76L230.277 1053.47L222.053 1067.98L214.684 1082.26L208.174 1096.27L202.527 1110L197.742 1123.4L193.819 1136.44L190.755 1149.09L188.548 1161.33L187.192 1173.13L186.68 1184.45L187.004 1195.26L188.155 1205.55L190.12 1215.28L192.889 1224.43L196.446 1232.98L200.777 1240.89L205.865 1248.15L211.693 1254.73L218.241 1260.62L225.49 1265.79L233.417 1270.23L242.001 1273.92L251.218 1276.84L261.044 1278.98L271.452 1280.32L282.418 1280.86L293.914 1280.58L305.911 1279.48L318.381 1277.54L331.296 1274.77L344.624 1271.15L358.336 1266.68L372.401 1261.36L386.786 1255.2L401.462 1248.19L416.395 1240.34L431.553 1231.64L446.904 1222.12L462.416 1211.77L478.056 1200.6L493.791 1188.63L509.59 1175.86L525.419 1162.32L541.247 1148.01L557.043 1132.95L572.775 1117.17L588.412 1100.68L603.923 1083.49L619.279 1065.64L634.45 1047.15L649.408 1028.04L664.124 1008.34L678.571 988.066L692.724 967.26L706.556 945.946L720.042 924.155L733.16 901.918L745.885 879.267L758.197 856.236L770.075 832.859L781.499 809.169L792.451 785.203L802.914 760.997L812.872 736.587L822.31 712.011L831.214 687.306L839.573 662.51L847.376 637.662L854.613 612.799L861.276 587.961L867.358 563.187L872.853 538.515L877.758 513.984L882.07 489.632L885.788 465.5L888.911 441.624L891.44 418.043L893.38 394.794L894.733 371.915L895.506 349.442L895.704 327.411L895.336 305.858L894.411 284.818L892.941 264.325L890.936 244.411L888.41 225.11L885.376 206.451L881.851 188.467L877.85 171.186L873.392 154.636L868.494 138.844L863.176 123.836L857.458 109.637L851.362 96.2694L844.91 83.756L838.125 72.1168L831.03 61.3709L823.651 51.5362L816.01 42.6286L808.135 34.6627L800.052 27.6521L791.786 21.6077L783.365 16.5401L774.816 12.4571L766.167 9.36564L757.446 7.27079L748.679 6.17607L739.896 6.08305L731.124 6.99235L722.392 8.90202L713.728 11.8091L705.158 15.7088L696.712 20.5949L688.415 26.4589L680.296 33.2913L672.38 41.0808L664.695 49.8151L657.264 59.4792L650.115 70.0575L643.271 81.5325L636.755 93.8855L630.592 107.096L624.802 121.143L619.409 136.003L614.431 151.651L609.89 168.063L605.803 185.211L602.188 203.067L599.063 221.603L596.441 240.787L594.339 260.59L592.768 280.978L591.742 301.92L591.27 323.38L591.363 345.325L592.028 367.718L593.273 390.525L595.104 413.708L597.524 437.231L600.537 461.055L604.144 485.143L608.346 509.457L613.141 533.957L618.528 558.606L624.501 583.364L631.057 608.194L638.188 633.054L645.887 657.908L654.143 682.717L662.948 707.442L672.288 732.045L682.15 756.488L692.521 780.735L703.384 804.748L714.722 828.491L726.517 851.929L738.75 875.027L751.4 897.751L764.447 920.067L777.866 941.943L791.636 963.348L805.731 984.25L820.126 1004.62L834.795 1024.43L849.71 1043.65L864.843 1062.26L880.167 1080.23L895.652 1097.54L911.268 1114.17L926.984 1130.08L942.77 1145.28L958.595 1159.72L974.427 1173.41L990.233 1186.32L1005.98 1198.44L1021.64 1209.76L1037.18 1220.26L1052.56 1229.94L1067.76 1238.79L1082.74 1246.8L1097.46 1253.96L1111.91 1260.29L1126.03 1265.76L1139.81 1270.38L1153.21 1274.16L1166.21 1277.09L1178.76 1279.18L1190.85 1280.44L1202.44 1280.87L1213.5 1280.48L1224.02 1279.29L1233.95 1277.29L1243.29 1274.52L1251.99 1270.97L1260.04 1266.67L1267.42 1261.63L1274.1 1255.88L1280.06 1249.42L1285.29 1242.28L1289.76 1234.49L1293.46 1226.06L1296.38 1217.02L1298.49 1207.4L1299.79 1197.21L1300.27 1186.49L1299.91 1175.26L1298.72 1163.55L1296.67 1151.39L1293.76 1138.81L1290 1125.84L1285.37 1112.51L1279.89 1098.84L1273.54 1084.88L1266.33 1070.64L1258.26 1056.17L1249.34 1041.5L1239.58 1026.66L1228.98 1011.67L1217.56 996.577L1205.32 981.408L1192.29 966.194L1178.46 950.968L1163.86 935.761L1148.51 920.604L1132.43 905.528L1115.62 890.564L1098.13 875.74L1079.96 861.087L1061.15 846.633L1041.72 832.406L1021.69 818.432L1001.09 804.74L979.961 791.353L958.319 778.298L936.2 765.597L913.636 753.274L890.658 741.35L867.302 729.847L843.601 718.783L819.59 708.178L795.307 698.049L770.786 688.412L746.065 679.281L721.181 670.671L696.174 662.595L671.079 655.062L645.938 648.084L620.787 641.668L595.666 635.822L570.615 630.551L545.671 625.861L520.875 621.753L496.265 618.23L471.879 615.292L447.757 612.938L423.936 611.166L400.453 609.971L377.347 609.349L354.653 609.294L332.409 609.797L310.648 610.851L289.406 612.443L268.718 614.564L248.615 617.199L229.13 620.337L210.294 623.96L192.137 628.054L174.689 632.602L157.977 637.584L142.029 642.982L126.869 648.775L112.521 654.943L99.0101 661.464L86.3562 668.314L74.5801 675.471L63.7003 682.91L53.7342 690.607L44.6977 698.535L36.6049 706.67L29.4687 714.985L23.3001 723.452L18.1088 732.045L13.9026 740.736L10.688 749.497L8.46951 758.301L7.2503 767.119L7.03175 775.923L7.81359 784.686L9.59393 793.379L12.3692 801.974L16.1343 810.444L20.8823 818.76L26.6049 826.897L33.292 834.827L40.932 842.523L49.5118 849.961L59.0165 857.114L69.4302 863.958L80.7349 870.469L92.9117 876.624L105.94 882.4L119.798 887.775L134.462 892.728L149.908 897.24L166.11 901.291L183.041 904.863L200.672 907.94L218.976 910.506L237.921 912.545L257.476 914.044L277.608 914.991L298.286 915.375L319.475 915.185L341.14 914.413L363.246 913.052L385.758 911.095L408.638 908.538L431.849 905.378L455.355 901.611L479.117 897.238L503.098 892.26L527.258 886.678L551.56 880.496L575.965 873.72L600.435 866.354L624.93 858.407L649.413 849.887L673.845 840.806L698.189 831.174L722.406 821.005L746.46 810.313L770.314 799.113L793.931 787.422L817.276 775.258L840.314 762.641L863.01 749.59L885.33 736.127L907.243 722.274L928.716 708.054L949.719 693.494L970.221 678.616L990.193 663.449L1009.61 648.019L1028.44 632.354L1046.66 616.483L1064.25 600.434L1081.18 584.239L1097.43 567.928L1112.98 551.531L1127.82 535.08L1141.92 518.608L1155.26 502.145L1167.85 485.726L1179.65 469.382L1190.65 453.147L1200.86 437.053L1210.26 421.133L1218.83 405.421L1226.59 389.949L1233.51 374.749L1239.6 359.854L1244.86 345.296L1249.29 331.107L1252.89 317.317L1255.66 303.958L1257.61 291.06L1258.74 278.651L1259.07 266.762L1258.6 255.419L1257.34 244.651L1255.3 234.484L1252.5 224.943L1248.95 216.053L1244.67 207.836L1239.68 200.317L1233.99 193.515L1227.62 187.452L1220.6 182.145L1212.94 177.614L1204.67 173.873L1195.81 170.939L1186.39 168.825L1176.43 167.543L1165.97 167.104L1155.01 167.518L1143.61 168.792L1131.77 170.934L1119.54 173.948L1106.94 177.837L1094 182.604L1080.76 188.249L1067.24 194.77L1053.47 202.165L1039.49 210.43L1025.33 219.558L1011.01 229.543L996.58 240.375L982.061 252.043L967.486 264.536L952.886 277.841L938.294 291.941L923.739 306.82L909.252 322.462L894.864 338.845L880.604 355.95L866.5 373.753L852.583 392.233L838.878 411.364L825.414 431.119L812.217 451.473L799.313 472.396L786.726 493.859L774.48 515.831L762.598 538.282L751.102 561.179L740.013 584.488L729.35 608.175L719.132 632.205L709.377 656.543L700.102 681.153L691.321 705.996L683.047 731.037L675.295 756.236L668.075 781.556L661.398 806.958L655.271 832.403L649.703 857.853L644.7 883.267L640.266 908.606L636.405 933.832L633.119 958.904L630.408 983.785L628.272 1008.43L626.708 1032.82L625.714 1056.89L625.284 1080.62L625.413 1103.96L626.093 1126.89L627.315 1149.36L629.07 1171.34L631.346 1192.79L634.132 1213.69L637.413 1233.99L641.174 1253.67L645.401 1272.69L650.076 1291.03L655.182 1308.65L660.698 1325.54L666.606 1341.65L672.885 1356.97L679.512 1371.47L686.466 1385.13L693.723 1397.94L701.259 1409.85L709.05 1420.87L717.07 1430.98L725.294 1440.15L733.695 1448.37L742.246 1455.63L750.92 1461.93L759.691 1467.25L768.53 1471.58L777.409 1474.92L786.3 1477.26L795.175 1478.6L804.007 1478.94L812.766 1478.29L821.426 1476.63L829.957 1473.99L838.333 1470.35L846.527 1465.74L854.511 1460.15L862.258 1453.61L869.744 1446.11L876.942 1437.68L883.827 1428.32L890.375 1418.07L896.563 1406.92L902.368 1394.91L907.767 1382.06L912.739 1368.38L917.265 1353.9L921.325 1338.65L924.9 1322.64L927.974 1305.92L930.529 1288.5L932.551 1270.42L934.026 1251.7L934.941 1232.38L935.284 1212.49L935.045 1192.06L934.215 1171.13L932.787 1149.73L930.753 1127.9L928.109 1105.67L924.85 1083.08L920.975 1060.17L916.482 1036.97L911.372 1013.52L905.646 989.861L899.307 966.028L892.36 942.061L884.812 917.998L876.668 893.876L867.938 869.736L858.631 845.613L848.76 821.547L838.336 797.574L827.373 773.733L815.887 750.06L803.895 726.591L791.414 703.362L778.462 680.409L765.06 657.766L751.23 635.466L736.993 613.543L722.373 592.029L707.394 570.956L692.081 550.352L676.462 530.249L660.562 510.675L644.41 491.655L628.034 473.217L611.465 455.385L594.731 438.184L577.864 421.634L560.895 405.758L543.855 390.575L526.778 376.103L509.694 362.36L492.637 349.361L475.64 337.119L458.737 325.649L441.96 314.96L425.342 305.062L408.918 295.964L392.72 287.672L376.781 280.191L361.135 273.526L345.814 267.677L330.849 262.645L316.274 258.431L302.118 255.03L288.414 252.439L275.191 250.653L262.479 249.665L250.306 249.466L238.701 250.047L227.69 251.396L217.301 253.502L207.558 256.349L198.486 259.924L190.107 264.209L182.446 269.188L175.521 274.841L169.354 281.148L163.963 288.089L159.365 295.641L155.576 303.781L152.612 312.486L150.484 321.73L149.206 331.487L148.787 341.731L149.237 352.435L150.563 363.57L152.772 375.109L155.867 387.021L159.851 399.278L164.726 411.85L170.492 424.705L177.147 437.813L184.688 451.144L193.109 464.665L202.404 478.346L212.566 492.156L223.584 506.062L235.447 520.035L248.143 534.042L261.658 548.053L275.976 562.037L291.079 575.965L306.949 589.805L323.567 603.529L340.911 617.107L358.958 630.511L377.684 643.714L397.063 656.687L417.07 669.406L437.677 681.844L458.854 693.977L480.572 705.78L502.8 717.23L525.506 728.307L548.657 738.988L572.219 749.253L596.158 759.085L620.438 768.464L645.023 777.376L669.877 785.803L694.962 793.733L720.24 801.152L745.674 808.048L771.225 814.412L796.853 820.233L822.52 825.506L848.186 830.222L873.813 834.378L899.36 837.969L924.788 840.993L950.058 843.449L975.131 845.337L999.967 846.66L1024.53 847.42L1048.78 847.622L1072.68 847.272L1096.19 846.376L1119.27 844.943L1141.9 842.983L1164.03 840.506L1185.63 837.524L1206.67 834.051L1227.11 830.101L1246.92 825.69L1266.07 820.834L1284.53 815.551L1302.28 809.86L1319.28 803.781L1335.51 797.334L1350.94 790.539L1365.55 783.421L1379.32 776.002L1392.23 768.306L1404.26 760.357L1415.38 752.181L1425.58 743.803L1434.86 735.25L1443.19 726.547L1450.55 717.724L1456.96 708.806L1462.38 699.821L1466.82 690.798L1470.27 681.764L1472.72 672.749L1474.18 663.779L1474.65 654.883L1474.12 646.09L1472.59 637.427L1470.08 628.922L1466.58 620.603L1462.11 612.496L1456.68 604.629L1450.29 597.028L1442.95 589.718L1434.69 582.725L1425.51 576.073L1415.44 569.787L1404.49 563.889L1392.68 558.402L1380.03 553.347L1366.57 548.745L1352.32 544.616L1337.3 540.979L1321.54 537.851L1305.07 535.249L1287.91 533.188L1270.1 531.684L1251.67 530.748L1232.64 530.394L1213.05 530.632L1192.93 531.471L1172.32 532.92L1151.25 534.986L1129.76 537.674L1107.88 540.988L1085.65 544.932L1063.1 549.507L1040.27 554.713L1017.21 560.549L993.94 567.011L970.508 574.097L946.949 581.8L923.301 590.113L899.602 599.029L875.891 608.538L852.204 618.628L828.579 629.288L805.054 640.503L781.665 652.259L758.448 664.54L735.44 677.328L712.675 690.604L690.189 704.349L668.014 718.541L646.185 733.158L624.734 748.178L603.692 763.575L583.09 779.325L562.958 795.401L543.324 811.777L524.216 828.424L505.66 845.313L487.682 862.415L470.306 879.7L453.554 897.137L437.449 914.694L422.011 932.34L407.258 950.043L393.208 967.769L379.878 985.485L367.282 1003.16L355.433 1020.76L344.343 1038.24L334.024 1055.59L324.483 1072.75L315.728 1089.71L307.765 1106.41L300.599 1122.84L294.232 1138.96L288.666 1154.74L283.9 1170.13L279.933 1185.12L276.762 1199.67L274.382 1213.75L272.788 1227.32L271.971 1240.36L271.923 1252.84L272.634 1264.74L274.091 1276.02L276.283 1286.66L279.195 1296.63L282.81 1305.9L287.113 1314.47L292.086 1322.3L297.709 1329.37L303.962 1335.66L310.824 1341.16L318.272 1345.85L326.284 1349.71L334.834 1352.73L343.899 1354.89L353.452 1356.18L363.466 1356.6L373.915 1356.13L384.77 1354.77L396.002 1352.52L407.584 1349.36L419.485 1345.29L431.675 1340.32L444.124 1334.45L456.802 1327.68L469.678 1320L482.722 1311.44L495.901 1301.99L509.186 1291.66L522.545 1280.46L535.948 1268.41L549.364 1255.52L562.763 1241.8L576.115 1227.27L589.39 1211.95L602.558 1195.86L615.591 1179.01L628.461 1161.43L641.141 1143.14L653.602 1124.17L665.818 1104.54L677.765 1084.28L689.418 1063.42L700.752 1041.98L711.744 1020.01L722.373 997.522L732.617 974.557L742.457 951.147L751.873 927.327L760.848 903.131L769.365 878.595L777.408 853.755L784.963 828.65L792.017 803.316L798.558 777.791L804.576 752.114L810.062 726.324L815.006 700.461L819.403 674.562L823.248 648.669L826.536 622.82L829.265 597.055L831.434 571.414L833.042 545.937L834.092 520.661L834.585 495.628L834.527 470.874L833.922 446.438L832.777 422.358L831.101 398.671L828.902 375.414L826.191 352.623L822.981 330.332L819.283 308.577L815.113 287.39L810.485 266.805L805.416 246.853L799.923 227.564L794.025 208.969L787.741 191.095L781.092 173.97L774.098 157.62L766.783 142.069L759.169 127.341L751.28 113.458L743.14 100.44L734.774 88.3065L726.208 77.0758L717.468 66.7637L708.58 57.385L699.573 48.9524L690.472 41.4781L681.307 34.9713L672.104 29.4413L662.893 24.8942L653.7 21.3354L644.555 18.7677L635.487 17.194L626.522 16.6138L617.69 17.0256L609.018 18.4268L600.533 20.8122L592.264 24.1755L584.237 28.5088L576.479 33.8027L569.015 40.0458L561.872 47.2253L555.074 55.3275L548.646 64.3363L542.61 74.2346L536.99 85.0042L531.807 96.6244L527.083 109.074L522.838 122.331L519.09 136.37L515.859 151.168L513.16 166.697L511.011 182.929L509.426 199.837L508.418 217.391L508 235.559L508.184 254.311L508.979 273.614L510.394 293.435L512.436 313.74L515.112 334.495L518.426 355.664L522.382 377.211L526.981 399.101L532.225 421.296L538.111 443.76L544.639 466.455L551.804 489.344L559.601 512.39L568.024 535.554L577.065 558.799L586.715 582.088L596.963 605.382L607.798 628.644L619.205 651.838L631.17 674.927L643.679 697.873L656.712 720.643L670.252 743.199L684.279 765.508L698.773 787.535L713.711 809.247L729.071 830.611L744.828 851.596L760.957 872.17L777.432 892.303L794.226 911.967L811.311 931.133L828.658 949.775L846.239 967.867L864.022 985.384L881.977 1002.3L900.072 1018.6L918.275 1034.26L936.554 1049.25L954.876 1063.57L973.207 1077.19L991.514 1090.1L1009.76 1102.28L1027.92 1113.73L1045.95 1124.43L1063.82 1134.36L1081.49 1143.53L1098.94 1151.93L1116.12 1159.55L1133.01 1166.39L1149.57 1172.44L1165.77 1177.7L1181.57 1182.18L1196.94 1185.88L1211.85 1188.8L1226.27 1190.95L1240.18 1192.33L1253.53 1192.95L1266.3 1192.83L1278.47 1191.96L1290 1190.37L1300.87 1188.07L1311.06 1185.06L1320.53 1181.38L1329.28 1177.03L1337.27 1172.04L1344.48 1166.41L1350.91 1160.19L1356.52 1153.37L1361.3 1146L1365.23 1138.08L1368.31 1129.66L1370.52 1120.74L1371.84 1111.36L1372.28 1101.54L1371.81 1091.32L1370.44 1080.71L1368.16 1069.75L1364.96 1058.47L1360.85 1046.9L1355.82 1035.06L1349.87 1022.98L1343.01 1010.7L1335.25 998.251L1326.58 985.656L1317.02 972.948L1306.57 960.158L1295.24 947.317L1283.06 934.455L1270.02 921.603L1256.16 908.789L1241.47 896.043L1225.99 883.396L1209.73 870.874L1192.72 858.507L1174.96 846.322L1156.5 834.346L1137.35 822.605L1117.55 811.124L1097.11 799.93L1076.06 789.045L1054.45 778.492L1032.29 768.294L1009.62 758.472L986.475 749.046L962.885 740.035L938.886 731.457L914.513 723.328L889.803 715.666L864.792 708.483L839.517 701.794L814.017 695.61L788.329 689.943L762.493 684.801L736.547 680.193L710.532 676.126L684.486 672.606L658.449 669.636L632.46 667.22L606.561 665.358L580.789 664.052L555.185 663.3L529.788 663.099L504.636 663.447L479.769 664.336L455.225 665.762L431.04 667.716L407.253 670.189L383.899 673.171L361.015 676.65L338.636 680.614L316.794 685.049L295.525 689.939L274.86 695.268L254.831 701.02L235.468 707.175L216.8 713.715L198.856 720.619L181.662 727.866L165.243 735.435L149.625 743.301L134.83 751.442L120.88 759.833L107.796 768.449L95.5947 777.265L84.295 786.255L73.9124 795.391L64.4611 804.647L55.9538 813.995L48.4017 823.407L41.8143 832.856L36.1995 842.313L31.5638 851.749L27.9116 861.137L25.2461 870.447L23.5687 879.651L22.8792 888.722L23.1756 897.63L24.4545 906.348L26.7107 914.848L29.9375 923.104L34.1266 931.087L39.268 938.772L45.3502 946.133L52.3603 953.145L60.2837 959.782L69.1044 966.022L78.805 971.841L89.3666 977.216L100.769 982.126L112.99 986.551L126.008 990.471L139.798 993.867L154.334 996.722L169.591 999.02L185.541 1000.74L202.154 1001.88L219.402 1002.42L237.253 1002.34L255.677 1001.64L274.64 1000.32L294.11 998.346L314.053 995.731L334.434 992.464L355.218 988.542L376.37 983.962L397.854 978.724L419.633 972.827L441.67 966.273L463.929 959.066L486.372 951.209L508.963 942.71L531.663 933.576L554.435 923.815L577.242 913.437L600.048 902.454L622.815 890.879L645.506 878.727L668.086 866.012L690.519 852.752L712.769 838.965L734.801 824.67L756.582 809.888L778.078 794.641L799.256 778.951L820.085 762.842L840.532 746.34L860.569 729.47L880.165 712.259L899.292 694.736L917.924 676.929L936.033 658.867L953.595 640.581L970.587 622.102L986.984 603.462L1002.77 584.692L1017.91 565.825L1032.41 546.895L1046.23 527.935L1059.37 508.98L1071.8 490.062L1083.52 471.217L1094.51 452.48L1104.76 433.884L1114.27 415.465L1123.03 397.257L1131.02 379.295L1138.25 361.612L1144.72 344.243L1150.41 327.222L1155.34 310.581L1159.5 294.355L1162.9 278.574L1165.54 263.271L1167.42 248.477L1168.56 234.222L1168.96 220.537L1168.64 207.449L1167.59 194.988L1165.85 183.179L1163.41 172.049L1160.3 161.623L1156.54 151.925L1152.13 142.978L1147.1 134.803L1141.47 127.421L1135.26 120.85L1128.49 115.11L1121.18 110.215L1113.36 106.181L1105.06 103.022L1096.29 100.749L1087.08 99.3744L1077.47 98.9062L1067.47 99.3524L1057.12 100.719L1046.44 103.011L1035.47 106.231L1024.23 110.38L1012.75 115.459L1001.06 121.465L989.189 128.395L977.174 136.245L965.041 145.007L952.821 154.673L940.542 165.234L928.236 176.678L915.933 188.992L903.661 202.163L891.45 216.174L879.33 231.008L867.328 246.645L855.473 263.066L843.791 280.249L832.311 298.171L821.058 316.808L810.057 336.133L799.334 356.121L788.912 376.742L778.814 397.969L769.063 419.769L759.68 442.113L750.684 464.967L742.096 488.299L733.932 512.074L726.211 536.257L718.948 560.813L712.158 585.704L705.853 610.894L700.047 636.346L694.751 662.02L689.973 687.879L685.724 713.883L682.008 739.993L678.834 766.169L676.204 792.372L674.122 818.562L672.591 844.699L671.609 870.743L671.177 896.655L671.292 922.395L671.951 947.924L673.148 973.202L674.878 998.191L677.133 1022.85L679.904 1047.15L683.181 1071.05L686.953 1094.51L691.207 1117.49L695.93 1139.97L701.106 1161.9L706.72 1183.26L712.755 1204.02L719.193 1224.13L726.014 1243.57L733.198 1262.32L740.725 1280.34L748.572 1297.61L756.717 1314.1L765.137 1329.79L773.806 1344.65L782.7 1358.67L791.793 1371.82L801.06 1384.09L810.474 1395.46L820.007 1405.92L829.633 1415.44L839.322 1424.02L849.048 1431.65L858.782 1438.31L868.494 1444.01L878.158 1448.73L887.743 1452.47L897.222 1455.23L906.566 1457L915.746 1457.8L924.734 1457.61L933.504 1456.44L942.025 1454.31L950.273 1451.21L958.22 1447.15L965.84 1442.16L973.107 1436.22L979.997 1429.37L986.485 1421.61L992.547 1412.97L998.16 1403.45L1003.3 1393.09L1007.96 1381.89L1012.1 1369.88L1015.71 1357.09L1018.77 1343.53L1021.27 1329.24L1023.19 1314.24L1024.51 1298.56L1025.22 1282.22L1025.31 1265.27L1024.76 1247.72L1023.58 1229.6L1021.74 1210.96L1019.25 1191.83L1016.09 1172.23L1012.26 1152.21L1007.76 1131.79L1002.59 1111.02L996.751 1089.92L990.236 1068.55L983.052 1046.92L975.203 1025.08L966.695 1003.07L957.534 980.92L947.729 958.67L937.29 936.356L926.228 914.016L914.555 891.686L902.285 869.403L889.433 847.202L876.016 825.12L862.052 803.191L847.56 781.451L832.559 759.933L817.072 738.671L801.121 717.699L784.729 697.048L767.923 676.749L750.726 656.833L733.167 637.33L715.273 618.268L697.073 599.675L678.595 581.577L659.871 564L640.932 546.968L621.809 530.504L602.534 514.629L583.14 499.366L563.661 484.732L544.13 470.746L524.582 457.424L505.05 444.782L485.57 432.833L466.177 421.59L446.905 411.065L427.79 401.265L408.866 392.2L390.168 383.877L371.732 376.299L353.591 369.471L335.78 363.396L318.334 358.073L301.284 353.502L284.665 349.681L268.509 346.606L252.847 344.273L237.712 342.673L223.132 341.8L209.139 341.645L195.76 342.196L183.024 343.441L170.958 345.368L159.587 347.962L148.937 351.207L139.031 355.087L129.892 359.583L121.541 364.675L113.998 370.345L107.282 376.571L101.41 383.329L96.3993 390.598L92.2637 398.354L89.0168 406.571L86.6701 415.225L85.2342 424.288L84.7176 433.735L85.1277 443.537L86.4701 453.667L88.749 464.096L91.9668 474.795L96.1244 485.736L101.221 496.889L107.255 508.224L114.222 519.711L122.116 531.321L130.931 543.023L140.657 554.788L151.285 566.586L162.803 578.387L175.196 590.162L188.451 601.882L202.551 613.517L217.478 625.04L233.213 636.423L249.735 647.638L267.021 658.659L285.048 669.458L303.792 680.012L323.227 690.294L343.324 700.282L364.056 709.952L385.392 719.281L407.303 728.249L429.757 736.835L452.719 745.02L476.158 752.786L500.039 760.115L524.325 766.991L548.982 773.4L573.973 779.328L599.259 784.763L624.803 789.692L650.568 794.107L676.513 797.999L702.6 801.36L728.789 804.184L755.041 806.467L781.316 808.205L807.575 809.395L833.776 810.039L859.88 810.135L885.849 809.686L911.641 808.696L937.219 807.169L962.542 805.111L987.574 802.529L1012.27 799.432L1036.61 795.829L1060.54 791.732L1084.02 787.154L1107.04 782.106L1129.54 776.605L1151.49 770.666L1172.87 764.306L1193.64 757.543L1213.77 750.396L1233.23 742.884L1252 735.029L1270.03 726.853L1287.32 718.378L1303.82 709.627L1319.53 700.626L1334.41 691.398L1348.45 681.97L1361.63 672.367L1373.92 662.617L1385.32 652.746L1395.81 642.782L1405.37 632.753L1413.99 622.688L1421.66 612.614L1428.38 602.56L1434.13 592.556L1438.91 582.63L1442.72 572.811L1445.56 563.127L1447.42 553.608L1448.3 544.282L1448.21 535.177L1447.16 526.321L1445.14 517.742L1442.17 509.466L1438.25 501.52L1433.4 493.93L1427.63 486.721L1420.95 479.919L1413.37 473.548L1404.92 467.63L1395.61 462.187L1385.46 457.243L1374.49 452.816L1362.73 448.927L1350.19 445.594L1336.9 442.835L1322.89 440.666L1308.18 439.103L1292.81 438.159L1276.79 437.848L1260.16 438.18L1242.96 439.167L1225.21 440.818L1206.94 443.139L1188.19 446.138L1168.99 449.819L1149.38 454.187L1129.39 459.242L1109.05 464.986L1088.41 471.418L1067.49 478.536L1046.33 486.337L1024.98 494.815L1003.46 503.964L981.816 513.776L960.08 524.243L938.291 535.352L916.485 547.093L894.697 559.451L872.964 572.413L851.321 585.961L829.804 600.078L808.447 614.747L787.284 629.945L766.348 645.654L745.674 661.849L725.292 678.508L705.235 695.606L685.533 713.118L666.215 731.016L647.311 749.272L628.848 767.86L610.854 786.748L593.353 805.907L576.37 825.305L559.93 844.911L544.053 864.693L528.762 884.617L514.076 904.65L500.013 924.759L486.591 944.907L473.825 965.062L461.729 985.188L450.317 1005.25L439.601 1025.21L429.589 1045.04L420.292 1064.69L411.717 1084.14L403.868 1103.35L396.751 1122.28L390.368 1140.9L384.721 1159.18L379.809 1177.07L375.631 1194.55L372.185 1211.59L369.465 1228.14L367.467 1244.18L366.182 1259.68L365.602 1274.61L365.718 1288.93L366.517 1302.62L367.989 1315.66L370.117 1328L372.889 1339.63L376.287 1350.53L380.294 1360.67L384.892 1370.02L390.061 1378.57L395.781 1386.29L402.03 1393.17L408.785 1399.19L416.024 1404.33L423.721 1408.59L431.853 1411.94L440.393 1414.38L449.316 1415.89L458.594 1416.47L468.2 1416.11L478.105 1414.81L488.283 1412.56L498.703 1409.35L509.337 1405.2L520.155 1400.09L531.129 1394.04L542.228 1387.05L553.424 1379.12L564.685 1370.26L575.984 1360.48L587.29 1349.79L598.575 1338.21L609.809 1325.74L620.964 1312.4L632.011 1298.22L642.924 1283.2L653.674 1267.37L664.235 1250.75L674.581 1233.36L684.686 1215.23L694.526 1196.37L704.076 1176.83L713.315 1156.62L722.218 1135.77L730.766 1114.32L738.937 1092.3L746.712 1069.73L754.073 1046.66L761.003 1023.1L767.485 999.112L773.505 974.716L779.048 949.951L784.103 924.855L788.656 899.465L792.699 873.82L796.223 847.958L799.22 821.918L801.683 795.739L803.608 769.461L804.991 743.125L805.83 716.769L806.124 690.434L805.872 664.159L805.079 637.985L803.745 611.952L801.875 586.098L799.476 560.462L796.554 535.085L793.117 510.003L789.176 485.256L784.741 460.879L779.823 436.911L774.437 413.387L768.597 390.341L762.319 367.809L755.618 345.824L748.513 324.419L741.023 303.625L733.168 283.473L724.968 263.991L716.446 245.21L707.623 227.155L698.523 209.853L689.17 193.327L679.589 177.602L669.806 162.699L659.847 148.638L649.738 135.439L639.508 123.12L629.182 111.695L618.79 101.18L608.36 91.5884L597.92 82.9304L587.5 75.2162L577.128 68.4544L566.833 62.6509L556.644 57.8113L546.591 53.9389L536.702 51.0352L527.006 49.1004L517.532 48.133L508.308 48.1298L499.361 49.0861L490.719 50.9956L482.409 53.8505L474.457 57.641L466.89 62.3561L459.732 67.9833L453.007 74.5089L446.741 81.9171L440.955 90.1911L435.671 99.3123L430.911 109.261L426.695 120.017L423.041 131.557L419.969 143.859L417.494 156.896L415.633 170.644L414.401 185.075L413.81 200.162L413.874 215.876L414.602 232.186L416.005 249.063L418.091 266.474L420.867 284.387L424.339 302.769L428.51 321.587L433.383 340.807L438.96 360.394L445.24 380.312L452.223 400.526L459.904 421.002L468.281 441.701L477.346 462.59L487.092 483.63L497.511 504.787L508.593 526.023L520.326 547.303L532.696 568.59L545.691 589.85L559.293 611.046L573.487 632.143L588.253 653.107L603.572 673.904L619.424 694.501L635.785 714.863L652.634 734.959L669.946 754.758L687.694 774.228L705.853 793.341L724.396 812.065L743.293 830.375L762.516 848.242L782.035 865.64L801.817 882.546L821.833 898.934L842.048 914.782L862.431 930.068L882.947 944.774L903.563 958.879L924.244 972.365L944.955 985.218L965.661 997.421L986.326 1008.96L1006.91 1019.83L1027.39 1030.01L1047.72 1039.49L1067.86 1048.27L1087.79 1056.35L1107.46 1063.71L1126.84 1070.35L1145.89 1076.27L1164.59 1081.47L1182.89 1085.95L1200.76 1089.71L1218.17 1092.76L1235.08 1095.11L1251.47 1096.75L1267.3 1097.69L1282.54 1097.95L1297.16 1097.54L1311.14 1096.47L1324.44 1094.74L1337.05 1092.38L1348.92 1089.41L1360.04 1085.83L1370.39 1081.66L1379.94 1076.93L1388.67 1071.65L1396.57 1065.85L1403.61 1059.55L1409.77 1052.76L1415.05 1045.52L1419.42 1037.85L1422.88 1029.77L1425.42 1021.31L1427.02 1012.49L1427.67 1003.35L1427.38 993.905L1426.13 984.189L1423.92 974.229L1420.76 964.055L1416.63 953.693L1411.55 943.175L1405.51 932.529L1398.52 921.784L1390.59 910.971L1381.73 900.117L1371.94 889.252L1361.23 878.406L1349.62 867.607L1337.13 856.883L1323.77 846.263L1309.55 835.774L1294.49 825.443L1278.63 815.298L1261.97 805.364L1244.54 795.667L1226.36 786.231L1207.47 777.08L1187.88 768.239L1167.63 759.728L1146.74 751.569L1125.25 743.783L1103.19 736.39L1080.58 729.407L1057.47 722.853L1033.88 716.744L1009.86 711.094L985.433 705.918L960.642 701.229L935.522 697.039L910.113 693.356L884.45 690.192L858.575 687.553L832.525 685.447L806.34 683.878L780.06 682.849L753.724 682.365L727.373 682.426L701.047 683.031L674.784 684.179L648.626 685.868L622.611 688.094L596.78 690.85L571.171 694.13L545.822 697.925L520.772 702.228L496.059 707.026L471.719 712.308L447.79 718.061L424.306 724.271L401.303 730.921L378.815 737.997L356.875 745.479L335.515 753.349L314.767 761.588L294.661 770.174L275.225 779.086L256.488 788.302L238.476 797.798L221.215 807.55L204.729 817.534L189.041 827.722L174.171 838.09L160.141 848.611L146.968 859.256L134.67 869.999L123.263 880.811L112.759 891.664L103.172 902.529L94.5135 913.376L86.7916 924.177L80.0144 934.903L74.1881 945.523L69.3172 956.009L65.4046 966.331L62.4516 976.46L60.4577 986.368L59.4212 996.026L59.3383 1005.41L60.204 1014.48L62.0114 1023.22L64.7523 1031.6L68.4168 1039.59L72.9936 1047.17L78.4697 1054.31L84.8308 1060.99L92.0611 1067.18L100.143 1072.87L109.059 1078.03L118.788 1082.64L129.31 1086.67L140.601 1090.12L152.639 1092.96L165.398 1095.18L178.853 1096.76L192.975 1097.69L207.739 1097.95L223.114 1097.54L239.07 1096.44L255.578 1094.65L272.605 1092.15L290.119 1088.94L308.088 1085.02L326.478 1080.38L345.254 1075.01L364.384 1068.93L383.831 1062.13L403.561 1054.62L423.539 1046.39L443.727 1037.45L464.092 1027.81L484.597 1017.47L505.205 1006.46L525.883 994.768L546.593 982.42L567.3 969.425L587.969 955.8L608.566 941.56L629.056 926.724L649.404 911.311L669.578 895.341L689.545 878.836L709.271 861.819L728.727 844.314L747.88 826.347L766.701 807.943L785.161 789.129L803.231 769.935L820.885 750.389L838.096 730.522L854.839 710.364L871.089 689.946L886.824 669.303L902.022 648.466L916.663 627.469L930.727 606.347L944.196 585.134L957.053 563.865L969.283 542.576L980.872 521.303L991.808 500.081L1002.08 478.947L1011.67 457.937L1020.59 437.088L1028.81 416.435L1036.34 396.014L1043.16 375.862L1049.29 356.015L1054.71 336.507L1059.43 317.373L1063.44 298.649L1066.76 280.368L1069.38 262.563L1071.31 245.268L1072.57 228.515L1073.15 212.334L1073.06 196.757L1072.33 181.813L1070.96 167.531L1068.96 153.939L1066.35 141.063L1063.15 128.928L1059.37 117.56L1055.03 106.982L1050.15 97.2147L1044.75 88.28L1038.86 80.1969L1032.49 72.9832L1025.66 66.6559L1018.41 61.2299L1010.76 56.7191L1002.72 53.1354L994.338 50.4896L985.626 48.7913L976.615 48.0475L967.333 48.2644L957.807 49.4463L948.066 51.5962L938.138 54.715L928.052 58.8024L917.838 63.8565L907.523 69.8729L897.138 76.8469L886.711 84.7715L876.27 93.6378L865.846 103.436L855.467 114.154L845.16 125.778L834.954 138.295L824.876 151.687L814.954 165.936L805.213 181.023L795.681 196.928L786.382 213.628L777.342 231.1L768.583 249.318L760.13 268.258L752.005 287.89L744.229 308.188L736.823 329.12L729.807 350.657L723.198 372.766L717.016 395.415L711.275 418.57L705.992 442.196L701.181 466.258L696.854 490.72L693.024 515.545L689.701 540.695L686.894 566.133L684.612 591.821L682.861 617.718L681.646 643.786L680.973 669.986L680.843 696.277L681.258 722.621L682.217 748.976L683.721 775.303L685.766 801.562L688.348 827.713L691.462 853.717L695.102 879.534L699.259 905.126L703.925 930.454L709.089 955.48L714.739 980.166L720.863 1004.48L727.446 1028.37L734.473 1051.82L741.927 1074.79L749.792 1097.24L758.048 1119.14L766.677 1140.46L775.657 1161.16L784.966 1181.23L794.583 1200.62L804.484 1219.31L814.645 1237.28L825.041 1254.51L835.646 1270.95L846.434 1286.6L857.379 1301.44L868.453 1315.44L879.628 1328.58L890.876 1340.85L902.168 1352.24L913.475 1362.73L924.768 1372.31L936.017 1380.96L947.194 1388.68L958.268 1395.47L969.21 1401.31L979.99 1406.2L990.579 1410.15L1000.95 1413.14L1011.07 1415.18L1020.91 1416.27L1030.44 1416.42L1039.64 1415.64L1048.49 1413.92L1056.94 1411.28L1064.97 1407.72L1072.57 1403.27L1079.71 1397.93L1086.35 1391.72L1092.48 1384.65L1098.08 1376.74L1103.13 1368.01L1107.6 1358.48L1111.47 1348.18L1114.73 1337.11L1117.36 1325.32L1119.34 1312.82L1120.67 1299.64L1121.32 1285.81L1121.28 1271.35L1120.54 1256.29L1119.1 1240.67L1116.94 1224.51L1114.06 1207.84L1110.45 1190.71L1106.11 1173.13L1101.04 1155.15L1095.23 1136.8L1088.68 1118.1L1081.4 1099.11L1073.39 1079.84L1064.65 1060.34L1055.2 1040.65L1045.03 1020.79L1034.16 1000.8L1022.59 980.723L1010.35 960.588L997.433 940.432L983.867 920.289L969.664 900.195L954.842 880.183L939.419 860.287L923.416 840.542L906.853 820.979L889.753 801.631L872.141 782.529L854.04 763.706L835.477 745.189L816.478 727.01L797.073 709.195L777.289 691.773L757.157 674.771L736.708 658.212L715.973 642.123L694.984 626.526L673.775 611.443L652.379 596.896L630.831 582.903L609.165 569.483L587.417 556.655L565.622 544.432L543.816 532.831L522.036 521.863L500.317 511.541L478.697 501.875L457.212 492.874L435.899 484.546L414.794 476.897L393.933 469.93L373.353 463.651L353.09 458.06L333.179 453.158L313.655 448.943L294.553 445.414L275.908 442.565L257.752 440.394L240.119 438.891L223.041 438.05L206.548 437.862L190.672 438.315L175.443 439.397L160.888 441.096L147.036 443.397L133.912 446.285L121.543 449.743L109.953 453.753L99.1636 458.297L89.1981 463.354L80.0764 468.903L71.8176 474.924L64.4394 481.393L57.9582 488.288L52.3887 495.583L47.7444 503.254L44.037 511.276L41.277 519.621L39.4729 528.265L38.632 537.179L38.76 546.335L39.8606 555.707L41.9364 565.264L44.988 574.98L49.0145 584.826L54.0133 594.772L59.9804 604.789L66.9099 614.85L74.7944 624.924L83.6248 634.984L93.3906 645.001L104.08 654.947L115.678 664.793L128.17 674.513L141.54 684.08L155.769 693.465L170.837 702.645L186.723 711.593L203.404 720.284L220.857 728.695L239.057 736.802L257.976 744.582L277.587 752.015L297.862 759.079L318.77 765.754L340.281 772.022L362.361 777.865L384.978 783.267L408.099 788.211L431.688 792.684L455.71 796.672L480.128 800.163L504.905 803.147L530.005 805.613L555.388 807.554L581.017 808.963L606.852 809.833L632.854 810.161L658.983 809.943L685.201 809.178L711.466 807.866L737.739 806.007L763.981 803.604L790.151 800.66L816.21 797.18L842.118 793.172L867.837 788.642L893.328 783.599L918.551 778.054L943.471 772.018L968.049 765.504L992.248 758.526L1016.03 751.099L1039.37 743.239L1062.22 734.963L1084.56 726.29L1106.34 717.24L1127.55 707.833L1148.14 698.091L1168.09 688.036L1187.38 677.691L1205.97 667.081L1223.83 656.23L1240.95 645.164L1257.3 633.909L1272.85 622.493L1287.6 610.942L1301.51 599.286L1314.58 587.551L1326.78 575.768L1338.1 563.965L1348.53 552.172L1358.05 540.418L1366.66 528.734L1374.35 517.149L1381.11 505.693L1386.94 494.396L1391.83 483.288L1395.78 472.398L1398.79 461.756L1400.86 451.391L1401.99 441.331L1402.2 431.605L1401.47 422.242L1399.84 413.267L1397.29 404.708L1393.84 396.591L1389.51 388.941L1384.31 381.784L1378.25 375.141L1371.35 369.037L1363.62 363.494L1355.09 358.532L1345.78 354.172L1335.71 350.432L1324.9 347.33L1313.37 344.882L1301.15 343.105L1288.27 342.013L1274.75 341.618L1260.63 341.932L1245.92 342.965L1230.67 344.727L1214.89 347.225L1198.63 350.465L1181.91 354.452L1164.77 359.19L1147.24 364.68L1129.36 370.923L1111.15 377.917L1092.65 385.66L1073.9 394.149L1054.93 403.378L1035.78 413.339L1016.47 424.025L997.059 435.426L977.564 447.529L958.026 460.324L938.479 473.794L918.957 487.926L899.493 502.701L880.123 518.102L860.879 534.109L841.794 550.701L822.899 567.857L804.228 585.552L785.809 603.762L767.674 622.461L749.852 641.624L732.371 661.221L715.259 681.224L698.542 701.604L682.247 722.329L666.396 743.368L651.016 764.69L636.126 786.26L621.749 808.045L607.905 830.011L594.612 852.123L581.888 874.345L569.749 896.642L558.211 918.977L547.286 941.315L536.987 963.617L527.324 985.848L518.308 1007.97L509.945 1029.95L502.244 1051.74L495.208 1073.32L488.842 1094.63L483.148 1115.66L478.127 1136.36L473.779 1156.69L470.101 1176.62L467.09 1196.12L464.742 1215.15L463.051 1233.67L462.008 1251.66L461.607 1269.08L461.835 1285.91L462.682 1302.1L464.136 1317.63L466.183 1332.48L468.808 1346.61L471.994 1360L475.724 1372.62L479.981 1384.45L484.744 1395.46L489.994 1405.64L495.71 1414.97L501.868 1423.41L508.447 1430.97L515.423 1437.62L522.77 1443.35L530.465 1448.14L538.481 1451.98L546.792 1454.87L555.371 1456.79L564.192 1457.74L573.225 1457.71L582.444 1456.7L591.82 1454.7L601.325 1451.73L610.93 1447.77L620.607 1442.83L630.327 1436.92L640.061 1430.04L649.781 1422.2L659.459 1413.41L669.066 1403.67L678.576 1393.02L687.959 1381.45L697.19 1368.98L706.241 1355.63L715.088 1341.42L723.704 1326.37L732.064 1310.5L740.145 1293.84L747.923 1276.4L755.375 1258.22L762.481 1239.31L769.219 1219.72L775.568 1199.46L781.511 1178.57L787.03 1157.08L792.107 1135.02L796.727 1112.43L800.875 1089.34L804.538 1065.78L807.704 1041.79L810.361 1017.41L812.5 992.67L814.112 967.613L815.19 942.276L815.729 916.697L815.722 890.915L815.169 864.971L814.065 838.902L812.411 812.75L810.207 786.554L807.456 760.353L804.161 734.188L800.327 708.098L795.959 682.123L791.066 656.302L785.655 630.674L779.738 605.277L773.324 580.15L766.428 555.33L759.062 530.854L751.241 506.759L742.982 483.079L734.301 459.851L725.218 437.107L715.751 414.881L705.921 393.205L695.749 372.11L685.258 351.627L674.471 331.784L663.412 312.61L652.107 294.129L640.579 276.369L628.857 259.354L616.967 243.105L604.936 227.644L592.793 212.992L580.567 199.166L568.285 186.184L555.979 174.061L543.676 162.812L531.408 152.449L519.204 142.983L507.095 134.423L495.11 126.777L483.28 120.052L471.635 114.251L460.205 109.379L449.02 105.436L438.109 102.422L427.502 100.336L417.227 99.1742L407.312 98.9314L397.786 99.6017L388.675 101.177L380.007 103.647L371.807 107.001L364.1 111.228L356.911 116.312L350.263 122.238L344.179 128.991L338.68 136.551L333.787 144.899L329.52 154.015L325.898 163.876L322.936 174.46L320.653 185.743L319.062 197.699L318.178 210.302L318.012 223.525L318.576 237.34L319.879 251.716L321.931 266.626L324.737 282.038L328.304 297.92L332.635 314.242L337.734 330.97L343.601 348.071L350.235 365.513L357.636 383.26L365.801 401.28L374.723 419.538L384.397 437.999L394.816 456.629L405.97 475.394L417.848 494.258L430.438 513.186L443.727 532.146L457.701 551.102L472.341 570.021L487.631 588.869L503.552 607.613L520.084 626.22L537.204 644.659L554.89 662.898L573.117 680.906L591.861 698.652L611.095 716.109L630.791 733.246L650.921 750.036L671.456 766.453L692.365 782.471L713.616 798.065L735.179 813.211L757.018 827.887L779.102 842.071L801.396 855.742L823.864 868.883L846.472 881.474L869.183 893.5L891.962 904.944L914.771 915.794L937.574 926.036L960.333 935.659L983.012 944.653L1005.57 953.01L1027.98 960.722L1050.19 967.785L1072.17 974.193L1093.89 979.944L1115.3 985.036L1136.38 989.47L1157.08 993.246L1177.36 996.368L1197.2 998.839L1216.56 1000.67L1235.41 1001.85L1253.71 1002.41L1271.43 1002.35L1288.54 1001.68L1305.01 1000.41L1320.81 998.559L1335.9 996.136L1350.28 993.159L1363.9 989.645L1376.74 985.612L1388.78 981.077L1400 976.062L1410.37 970.586L1419.88 964.672L1428.5 958.342L1436.22 951.619L1443.03 944.528L1448.9 937.093L1453.83 929.339L1457.81 921.293L1460.82 912.981L1462.86 904.43L1463.92 895.667L1464 886.721L1463.09 877.618L1461.2 868.388L1458.31 859.058L1454.44 849.657L1449.59 840.213L1443.76 830.756L1436.95 821.313L1429.19 811.913L1420.47 802.583L1410.81 793.351L1400.22 784.245L1388.72 775.292L1376.32 766.518L1363.04 757.949L1348.91 749.612L1333.93 741.53L1318.13 733.728L1301.53 726.229L1284.17 719.056L1266.06 712.231L1247.24 705.775L1227.73 699.707L1207.55 694.048L1186.75 688.814L1165.35 684.024L1143.39 679.693L1120.89 675.835L1097.9 672.465L1074.45 669.595L1050.57 667.237L1026.3 665.399L1001.68 664.092L976.75 663.322L951.541 663.097L926.095 663.419L900.45 664.294L874.646 665.724L848.724 667.708L822.721 670.248L796.679 673.34L770.636 676.982L744.632 681.17L718.708 685.897L692.901 691.156L667.252 696.939L641.798 703.236L616.579 710.036L591.631 717.326L566.993 725.093L542.7 733.323L518.789 741.999L495.295 751.104L472.252 760.62L449.694 770.527L427.653 780.805L406.162 791.434L385.251 802.39L364.949 813.65L345.286 825.19L326.288 836.985L307.981 849.01L290.39 861.238L273.54 873.642L257.451 886.194L242.145 898.866L227.641 911.629L213.957 924.454L201.11 937.312L189.115 950.171L177.985 963.004L167.732 975.778L158.366 988.463L149.897 1001.03L142.332 1013.45L135.676 1025.68L129.933 1037.71L125.106 1049.49L121.197 1061L118.203 1072.22L116.123 1083.1L114.954 1093.62L114.689 1103.76L115.322 1113.48L116.844 1122.76L119.246 1131.57L122.516 1139.89L126.642 1147.68L131.608 1154.94L137.399 1161.62L143.999 1167.72L151.388 1173.2L159.548 1178.05L168.457 1182.26L178.094 1185.79L188.434 1188.64L199.455 1190.79L211.13 1192.22L223.433 1192.92L236.337 1192.88L249.813 1192.09L263.834 1190.54L278.368 1188.22L293.386 1185.13L308.855 1181.26L324.746 1176.6L341.024 1171.16L357.658 1164.94L374.614 1157.93L391.86 1150.13L409.36 1141.56L427.081 1132.22L444.99 1122.12L463.051 1111.25L481.231 1099.64L499.496 1087.3L517.811 1074.23L536.143 1060.45L554.458 1045.98L572.723 1030.84L590.905 1015.04L608.971 998.598L626.891 981.545L644.631 963.899L662.163 945.683L679.454 926.922L696.477 907.643L713.203 887.872L729.604 867.639L745.652 846.971L761.323 825.899L776.591 804.455L791.432 782.67L805.824 760.578L819.745 738.211L833.175 715.604L846.093 692.792L858.482 669.811L870.325 646.696L881.606 623.484L892.312 600.211L902.428 576.915L911.943 553.633L920.848 530.403L929.133 507.261L936.79 484.247L943.814 461.398L950.199 438.751L955.943 416.343L961.044 394.212L965.5 372.396L969.313 350.929L972.485 329.849L975.02 309.192L976.923 288.991L978.199 269.282L978.858 250.098L978.907 231.473L978.357 213.439L977.22 196.026L975.508 179.266L973.235 163.187L970.417 147.818L967.07 133.187L963.21 119.319L958.857 106.239L954.029 93.9718L948.748 82.5386L943.033 71.9609L936.908 62.2586L930.396 53.4497L923.519 45.551L916.302 38.5781L908.771 32.5447L900.951 27.4633L892.868 23.3446L884.549 20.1978L876.02 18.0305L867.31 16.8488L858.446 16.6568L849.456 17.4577L840.368 19.2522L831.21 22.0398L822.011 25.8185L812.799 30.5845L803.602 36.3322L794.449 43.0543L785.366 50.7423L776.383 59.3861L767.526 68.9734L758.822 79.4909L750.299 90.9232L741.981 103.254L733.894 116.466L726.064 130.539L718.514 145.451L711.268 161.182L704.35 177.706L697.78 195L691.58 213.037L685.77 231.788L680.37 251.227L675.397 271.322L670.869 292.044L666.802 313.36L663.212 335.237L660.111 357.641L657.513 380.539L655.43 403.895L653.871 427.672L652.845 451.834L652.361 476.344L652.425 501.163L653.041 526.254L654.215 551.578L655.947 577.095L658.241 602.767L661.094 628.554L664.506 654.416L668.474 680.314L672.993 706.208L678.058 732.059L683.662 757.827L689.797 783.473L696.453 808.959L703.62 834.245L711.285 859.295L719.434 884.07L728.054 908.534L737.128 932.649L746.64 956.382L756.571 979.696L766.903 1002.56L777.614 1024.93L788.684 1046.79L800.091 1068.1L811.811 1088.83L823.82 1108.95L836.093 1128.44L848.605 1147.26L861.329 1165.39L874.238 1182.81L887.303 1199.49L900.498 1215.42L913.792 1230.57L927.157 1244.92L940.562 1258.45L953.978 1271.16L967.374 1283.02L980.719 1294.03L993.984 1304.16L1007.14 1313.42L1020.14 1321.78L1032.98 1329.26L1045.61 1335.83L1058 1341.5L1070.13 1346.27L1081.96 1350.14L1093.47 1353.09L1104.62 1355.15L1115.39 1356.31L1125.74 1356.58L1135.66 1355.97L1145.11 1354.48L1154.06 1352.13L1162.49 1348.92L1170.38 1344.88L1177.7 1340.01L1184.43 1334.33L1190.54 1327.87L1196.02 1320.62L1200.85 1312.63L1205 1303.91L1208.46 1294.47L1211.21 1284.35L1213.24 1273.57L1214.54 1262.15L1215.08 1250.12L1214.86 1237.51L1213.87 1224.35L1212.11 1210.66L1209.55 1196.48L1206.2 1181.83L1202.06 1166.75L1197.12 1151.27L1191.37 1135.41L1184.83 1119.22L1177.48 1102.73L1169.34 1085.96L1160.41 1068.96L1150.7 1051.75L1140.21 1034.37L1128.95 1016.86L1116.93 999.24L1104.17 981.554L1090.68 963.833L1076.47 946.109L1061.57 928.416L1045.98 910.787L1029.73 893.253L1012.84 875.847L995.325 858.6L977.217 841.543L958.536 824.705L939.309 808.116L919.562 791.805L899.323 775.799L878.621 760.125L857.485 744.81L835.948 729.877L814.039 715.352L791.792 701.257L769.241 687.615L746.419 674.445L723.362 661.769L700.103 649.603L676.681 637.965L653.13 626.872L629.489 616.338L605.793 606.376L582.081 596.998L558.391 588.215L534.759 580.036L511.225 572.47L487.826 565.522L464.6 559.199L441.585 553.503L418.818 548.437L396.338 544.002L374.18 540.198L352.382 537.023L330.98 534.473L310.01 532.545L289.506 531.232L269.504 530.527L250.036 530.422L231.137 530.906L212.837 531.969L195.168 533.598L178.161 535.78L161.845 538.501L146.248 541.743L131.396 545.492L117.317 549.727L104.034 554.431L91.5718 559.584L79.9514 565.164L69.1941 571.15L59.3192 577.52L50.3448 584.249L42.2872 591.315L35.1617 598.692L28.9816 606.354L23.759 614.277L19.5043 622.433L16.2263 630.796L13.9322 639.338L12.6277 648.032L12.3166 656.851L13.0014 665.765L14.6827 674.747L17.3597 683.77L21.0296 692.803L25.6882 701.82L31.3297 710.792L37.9465 719.692L45.5295 728.491L54.0681 737.163L63.5498 745.68L73.9608 754.015L85.2858 762.143L97.5078 770.038L110.608 777.675L124.568 785.029L139.364 792.077L154.976 798.796L171.379 805.163L188.547 811.158L206.454 816.76L225.072 821.95L244.373 826.708L264.327 831.019L284.902 834.864L306.066 838.229L327.787 841.1L350.03 843.463L372.761 845.307L395.945 846.622L419.545 847.397L443.525 847.626L467.847 847.3L492.473 846.415L517.365 844.967L542.485 842.952L567.794 840.37L593.252 837.22L618.82 833.504L644.459 829.223L670.129 824.383L695.79 818.988L721.405 813.045L746.933 806.562L772.335 799.549L797.574 792.016L822.611 783.975L847.409 775.438L871.929 766.422L896.136 756.94L919.994 747.011L943.468 736.651L966.523 725.881L989.126 714.719L1011.24 703.189L1032.84 691.31L1053.9 679.108L1074.37 666.606L1094.24 653.828L1113.48 640.801L1132.06 627.551L1149.95 614.106L1167.13 600.493L1183.59 586.741L1199.29 572.879L1214.22 558.936L1228.36 544.943L1241.7 530.931L1254.21 516.928L1265.88 502.968L1276.71 489.08L1286.68 475.296L1295.78 461.648L1304.01 448.166L1311.36 434.882L1317.81 421.828L1323.38 409.033L1328.06 396.529L1331.85 384.345L1334.74 372.513L1336.76 361.062L1337.89 350.02L1338.14 339.416L1337.53 329.277L1336.06 319.632L1333.75 310.506L1330.6 301.924L1326.63 293.913L1321.86 286.494L1316.29 279.692L1309.95 273.529L1302.86 268.024L1295.04 263.197L1286.51 259.068L1277.28 255.654L1267.4 252.969L1256.87 251.031L1245.72 249.851L1233.99 249.442L1221.69 249.815L1208.86 250.98L1195.53 252.945L1181.72 255.715L1167.47 259.296L1152.81 263.692L1137.76 268.905L1122.37 274.935L1106.65 281.782L1090.65 289.443L1074.4 297.914L1057.93 307.191L1041.28 317.265L1024.47 328.128L1007.54 339.771L990.528 352.182L973.462 365.348L956.377 379.254L939.305 393.885L922.278 409.224L905.329 425.251L888.489 441.948L871.789 459.291L855.26 477.259L838.932 495.829L822.833 514.974L806.993 534.668L791.439 554.885L776.199 575.595L761.297 596.769L746.76 618.377L732.611 640.386L718.874 662.765L705.571 685.48L692.722 708.498L680.347 731.783L668.466 755.3L657.095 779.014L646.251 802.887L635.949 826.884L626.201 850.966L617.022 875.095L608.421 899.235L600.409 923.347L592.993 947.393L586.181 971.333L579.978 995.131L574.389 1018.75L569.415 1042.14L565.06 1065.28L561.322 1088.13L558.2 1110.64L555.691 1132.79L553.792 1154.52L552.497 1175.82L551.799 1196.64L551.691 1216.95L552.162 1236.72L553.202 1255.91L554.799 1274.49L556.941 1292.43L559.613 1309.69L562.799 1326.26L566.483 1342.1L570.648 1357.18L575.275 1371.49L580.344 1384.99L585.835 1397.65L591.727 1409.47L597.997 1420.42L604.622 1430.48L611.579 1439.63L618.843 1447.85L626.388 1455.14L634.191 1461.48L642.224 1466.85L650.46 1471.25L658.873 1474.66L667.435 1477.09L676.119 1478.52L684.897 1478.95L693.741 1478.39L702.622 1476.82L711.513 1474.26L720.386 1470.7L729.211 1466.15L737.963 1460.62L746.613 1454.1L755.133 1446.63L763.497 1438.19L771.677 1428.81L779.649 1418.51L787.385 1407.29L794.862 1395.17L802.053 1382.18L808.937 1368.32L815.489 1353.64L821.687 1338.14L827.51 1321.85L832.936 1304.8L837.948 1287.02L842.525 1268.52L846.65 1249.35L850.306 1229.53L853.478 1209.1L856.152 1188.07L858.313 1166.5L859.951 1144.41L861.054 1121.83L861.612 1098.81L861.617 1075.38L861.063 1051.57L859.942 1027.43L858.252 1002.98L855.988 978.279L853.15 953.352L849.735 928.242L845.747 902.988L841.186 877.629L836.057 852.203L830.365 826.752L824.115 801.313L817.316 775.926L809.977 750.629L802.108 725.462L793.721 700.462L784.829 675.667L775.445 651.115L765.587 626.842L755.269 602.885L744.51 579.278L733.328 556.058L721.744 533.258L709.78 510.91L697.456 489.048L684.796 467.702L671.825 446.903L658.566 426.68L645.047 407.061L631.293 388.073L617.331 369.741L603.191 352.091L588.899 335.144L574.487 318.924L559.982 303.45L545.416 288.742L530.82 274.817L516.223 261.692L501.657 249.381L487.154 237.897L472.746 227.252L458.463 217.457L444.338 208.52L430.402 200.448L416.687 193.246L403.224 186.919L390.044 181.47L377.179 176.898L364.658 173.203L352.512 170.383L340.77 168.435L329.462 167.352L318.615 167.128L308.258 167.755L298.418 169.223L289.121 171.52L280.392 174.635L272.257 178.552L264.737 183.257L257.857 188.733L251.638 194.962L246.1 201.925L241.263 209.601L237.144 217.969L233.761 227.006L231.129 236.688L229.264 246.991L228.177 257.889L227.88 269.356L228.385 281.363L229.699 293.882L231.831 306.886L234.785 320.343L238.568 334.224L243.181 348.498L248.627 363.133L254.904 378.099L262.013 393.362L269.949 408.89L278.708 424.652L288.284 440.613L298.669 456.741L309.855 473.003L321.829 489.366L334.581 505.798L348.097 522.265L362.361 538.736L377.357 555.177L393.067 571.558L409.471 587.846L426.549 604.012L444.28 620.023L462.638 635.851L481.601 651.467L501.142 666.841L521.235 681.946L541.85 696.755L562.96 711.242L584.533 725.382L606.54 739.15L628.947 752.524L651.722 765.481L674.83 777.999L698.239 790.059L721.911 801.643L745.813 812.731L769.906 823.309L794.155 833.36L818.521 842.87L842.968 851.828L867.457 860.221L891.95 868.04L916.409 875.275L940.794 881.921L965.068 887.97L989.192 893.418L1013.13 898.262L1036.84 902.5L1060.28 906.132L1083.42 909.158L1106.22 911.582L1128.65 913.406L1150.66 914.636L1172.22 915.277L1193.3 915.339L1213.86 914.829L1233.87 913.759L1253.29 912.138L1272.09 909.981L1290.25 907.301L1307.73 904.112L1324.5 900.432L1340.54 896.277L1355.81 891.666L1370.3 886.617L1383.97 881.151L1396.81 875.289L1408.8 869.053L1419.91 862.466L1430.12 855.552L1439.42 848.333L1447.79 840.836L1455.22 833.085L1461.7 825.107L1467.2 816.928L1471.74 808.575L1475.28 800.075L1477.84 791.456L1479.39 782.745L1479.95 773.971L1479.51 765.161L1478.07 756.344L1475.63 747.547L1472.2 738.799L1467.77 730.127L1462.36 721.56L1455.98 713.124L1448.63 704.847L1440.33 696.756L1431.08 688.877L1420.91 681.235L1409.83 673.857L1397.86 666.766L1385.01 659.986L1371.31 653.542L1356.78 647.456L1341.45 641.748L1325.33 636.441L1308.45 631.554L1290.84 627.106L1272.53 623.114L1253.55 619.597L1233.92 616.57L1213.69 614.048L1192.87 612.043L1171.51 610.57L1149.64 609.638L1127.29 609.258L1104.51 609.438L1081.31 610.187L1057.75 611.509L1033.86 613.41L1009.68 615.894L985.237 618.962L960.582 622.615L935.75 626.852L910.779 631.672L885.709 637.071L860.578 643.044L835.426 649.585L810.291 656.687L785.213 664.341L760.229 672.537L735.379 681.264L710.699 690.508L686.228 700.256L662.001 710.493L638.057 721.201L614.429 732.364L591.154 743.962L568.265 755.977L545.797 768.386L523.781 781.167L502.249 794.298L481.233 807.755L460.761 821.512L440.862 835.544L421.565 849.824L402.894 864.325L384.875 879.018L367.532 893.875L350.888 908.867L334.963 923.964L319.778 939.134L305.351 954.348L291.699 969.574L278.837 984.781L266.779 999.936L255.539 1015.01L245.127 1029.97L235.553 1044.78L226.824 1059.41L218.948 1073.83L211.928 1088L205.77 1101.9L200.473 1115.5L196.04 1128.75L192.467 1141.64L189.753 1154.13L187.894 1166.19L186.882 1177.8L186.712 1188.92L187.374 1199.52L188.858 1209.59L191.152 1219.08L194.243 1227.99L198.118 1236.28L202.759 1243.93L208.151 1250.91L214.274 1257.22L221.11 1262.81L228.638 1267.69L236.836 1271.82L245.68 1275.2L255.148 1277.8L265.215 1279.62L275.854 1280.64L287.038 1280.85L298.742 1280.23L310.935 1278.79L323.59 1276.51L336.677 1273.39L350.165 1269.43L364.024 1264.62L378.224 1258.96L392.731 1252.45L407.515 1245.09L422.544 1236.9L437.785 1227.86L453.205 1218L468.773 1207.32L484.456 1195.82L500.221 1183.52L516.036 1170.44L531.869 1156.58L547.688 1141.97L563.461 1126.61L579.158 1110.54L594.747 1093.76L610.198 1076.3L625.483 1058.19L640.57 1039.44L655.433 1020.08L670.043 1000.15L684.374 979.654L698.398 958.638L712.093 937.126L725.431 915.149L738.392 892.74L750.951 869.93L763.089 846.753L774.784 823.244L786.018 799.438L796.773 775.37L807.032 751.076L816.78 726.594L826.002 701.961L834.686 677.214L842.819 652.392L850.393 627.534L857.397 602.676L863.823 577.86L869.667 553.122L874.923 528.503L879.586 504.04L883.656 479.774L887.132 455.741L890.013 431.98L892.302 408.53L894.002 385.427L895.118 362.709L895.655 340.412L895.622 318.572L895.026 297.224L893.878 276.402L892.188 256.141L889.969 236.473L887.234 217.43L883.999 199.042L880.278 181.341L876.088 164.354L871.449 148.11L866.377 132.634L860.894 117.953L855.019 104.09L848.776 91.0679L842.185 78.9082L835.271 67.6306L828.057 57.254L820.568 47.7949L812.829 39.2693L804.866 31.6911L796.705 25.0727L788.373 19.4251L779.897 14.7576L771.304 11.0778L762.622 8.39188L753.878 6.70402L745.102 6.01737" stroke="url(#paint0_linear_110_2)" stroke-width="12"/>
<defs>
<linearGradient id="paint0_linear_110_2" x1="6.99997" y1="742.477" x2="1479.95" y2="742.477" gradientUnits="userSpaceOnUse">
<stop stop-color="white"/>
<stop offset="0.302083" stop-color="#008DD2"/>
<stop offset="0.671875" stop-color="#B015AF"/>
<stop offset="1" stop-color="#E83F44"/>
</linearGradient>
</defs>
</svg>
