<svg width="42" height="42" viewBox="0 0 42 42" fill="none" xmlns="http://www.w3.org/2000/svg">
<path d="M31.4167 24.125C31.4167 22.3992 30.0176 21 28.2917 21H13.7084C11.9825 21 10.5834 22.3992 10.5834 24.125V25.1667C10.5834 29.2737 14.4574 33.5 21.0001 33.5C27.5428 33.5 31.4167 29.2737 31.4167 25.1667V24.125ZM26.7292 13.1875C26.7292 10.0234 24.1642 7.45832 21.0001 7.45832C17.8359 7.45832 15.2709 10.0234 15.2709 13.1875C15.2709 16.3516 17.8359 18.9167 21.0001 18.9167C24.1642 18.9167 26.7292 16.3516 26.7292 13.1875ZM41.8334 21C41.8334 32.5058 32.5059 41.8333 21.0001 41.8333C9.49414 41.8333 0.166748 32.5058 0.166748 21C0.166748 9.49405 9.49414 0.166656 21.0001 0.166656C32.5059 0.166656 41.8334 9.49405 41.8334 21ZM38.7084 21C38.7084 11.2199 30.7801 3.29166 21.0001 3.29166C11.22 3.29166 3.29175 11.2199 3.29175 21C3.29175 30.78 11.22 38.7083 21.0001 38.7083C30.7801 38.7083 38.7084 30.78 38.7084 21Z" fill="white"/>
</svg>
