<svg width="623" height="650" viewBox="0 0 623 650" fill="none" xmlns="http://www.w3.org/2000/svg">
<path d="M178.922 145.224C149.198 89.3659 209.884 12.7259 209.884 12.7259H622.882V639.81C623.147 646.151 622.882 650 622.882 650V639.81C621.648 610.225 608.899 526.401 504.027 526.401C376.682 526.401 356.206 370.173 416.633 290.575C477.06 210.978 485.549 173.404 468.57 135.336C431.243 51.6472 221.993 226.163 178.922 145.224Z" fill="#2E497E"/>
<path d="M178.921 131.887C149.197 76.2868 210.162 0.978916 210.162 0.978916L622.882 0V624.195C623.146 630.506 622.882 634.337 622.882 634.337V624.195C621.648 594.745 608.898 511.308 504.026 511.308C376.681 511.308 356.206 355.8 416.633 276.569C477.059 197.338 485.549 159.938 468.569 122.045C431.242 38.7419 221.993 212.453 178.921 131.887Z" fill="url(#paint0_linear_127_3)"/>
<path d="M206.909 372.978C260.745 430.8 91.2759 536.174 119.191 647L28.5456 647.5L13.0047 644.696L8.0127 643.778V393.698C77.0624 371.411 162.173 324.931 206.909 372.978Z" fill="#2E497E"/>
<path d="M198.751 369.426C252.664 428.161 83.724 534.425 111.679 647L23.5323 647.438H13.0492C13.0492 647.438 7.43774 647.814 5.06198 646.949C2.21906 645.914 1.29869 643.523 1.05674 642.054C0.932369 641.3 1.05674 640.097 1.05674 640.097L1.0566 389.984C70.205 367.345 153.951 320.62 198.751 369.426Z" fill="url(#paint1_linear_127_3)"/>
<defs>
<linearGradient id="paint0_linear_127_3" x1="259.583" y1="-3.19345e-06" x2="484.77" y2="637.143" gradientUnits="userSpaceOnUse">
<stop stop-color="#008DD2"/>
<stop offset="0.449756" stop-color="#B015AF"/>
<stop offset="1" stop-color="#E83F44"/>
</linearGradient>
<linearGradient id="paint1_linear_127_3" x1="23.5322" y1="347.89" x2="116.445" y2="667.037" gradientUnits="userSpaceOnUse">
<stop stop-color="#0280C0"/>
<stop offset="0.479167" stop-color="#B015AF"/>
<stop offset="1" stop-color="#E83F44"/>
</linearGradient>
</defs>
</svg>
